<?xml version="1.0" encoding="UTF-8"?>
<svg version="1.1" xmlns="http://www.w3.org/2000/svg" width="512" height="512">
<path d="M0 0 C1.3376421 -0.00346042 2.67528134 -0.00822757 4.01291466 -0.01418173 C7.67358313 -0.02666867 11.33401602 -0.02053197 14.99468517 -0.01122308 C18.9483974 -0.00442342 22.90206968 -0.01491835 26.85577393 -0.02316284 C34.59513172 -0.0364926 42.33440217 -0.03362582 50.07376337 -0.02492492 C56.36451083 -0.0181458 62.65523383 -0.01723264 68.94598389 -0.02049637 C69.84180723 -0.02095607 70.73763057 -0.02141577 71.66060007 -0.0218894 C73.48052995 -0.02284859 75.30045983 -0.02382123 77.1203897 -0.02480717 C94.18010276 -0.03335885 111.23976744 -0.02353042 128.29947257 -0.00740607 C142.93290829 0.00599691 157.5662726 0.00366875 172.19970703 -0.01016235 C189.19897703 -0.02622209 206.19820463 -0.03253489 223.19748116 -0.02332556 C225.01066207 -0.02236993 226.823843 -0.02142682 228.63702393 -0.02049637 C229.97515312 -0.01980213 229.97515312 -0.01980213 231.34031522 -0.01909386 C237.62245603 -0.01650516 243.90456991 -0.0208724 250.18670654 -0.02793503 C257.84404223 -0.03635459 265.50128568 -0.03406029 273.15861082 -0.0180928 C277.06442306 -0.01021622 280.97008158 -0.00710797 284.87589264 -0.01704025 C288.45358384 -0.02600045 292.03097928 -0.02103274 295.60864377 -0.0051076 C297.51111654 -0.00018598 299.41360995 -0.00994449 301.31606102 -0.02027929 C308.71546698 0.03051624 315.00308636 0.40433714 321.03369141 5.14266968 C321.57251953 5.77817749 322.11134766 6.4136853 322.66650391 7.06845093 C323.22080078 7.69106812 323.77509766 8.3136853 324.34619141 8.95516968 C327.70619619 14.59452906 328.0864433 20.94031103 328.0459795 27.36521721 C328.04918598 28.13122016 328.05239246 28.8972231 328.0556961 29.68643826 C328.06397419 32.24418146 328.05807954 34.80168915 328.05220032 37.35943604 C328.055222 39.21537528 328.05911156 41.07131328 328.06379288 42.92724907 C328.07407944 48.02059784 328.07188937 53.11387626 328.06761229 58.20723081 C328.06514628 63.70290973 328.07415768 69.19857167 328.08164978 74.69424438 C328.09440218 85.45822737 328.0961898 96.22218542 328.09384952 106.98617469 C328.09206683 115.73494819 328.09381494 124.48371413 328.09807396 133.23248672 C328.09866915 134.47742813 328.09926434 135.72236954 328.09987756 137.00503645 C328.10108931 139.53409687 328.10230344 142.06315728 328.10351994 144.5922177 C328.11130755 161.57415322 328.115226 178.55608604 328.11120319 195.53802299 C328.11104682 196.2019298 328.11089044 196.8658366 328.11072933 197.5498618 C328.10992356 200.91470274 328.10907779 204.27954368 328.10821602 207.64438461 C328.10795939 208.64676284 328.10795939 208.64676284 328.10769758 209.66939115 C328.10735092 211.02075875 328.10700239 212.37212634 328.10665199 213.72349394 C328.10129479 234.75076833 328.10922579 255.77800077 328.12768555 276.80526733 C328.14840757 300.43704744 328.1590968 324.06880744 328.15511006 347.70059884 C328.15319688 360.21041664 328.15569703 372.72019623 328.1698246 385.23000717 C328.18172956 395.879508 328.18315319 406.52894711 328.17103443 417.17844878 C328.16513961 422.61154826 328.16406308 428.04453479 328.17603683 433.4776268 C328.18687456 438.45307371 328.18381732 443.42831308 328.16977515 448.4037502 C328.16712242 450.20179273 328.1695128 451.99985143 328.17751101 453.79787813 C328.26629618 475.24933618 328.26629618 475.24933618 323.17797548 481.2994765 C318.11572267 486.19160142 312.1907792 487.77189183 305.20532227 487.6812439 C299.96053804 487.0287624 295.15164283 484.73780284 290.29150391 482.75595093 C288.97574134 482.23150739 287.65938987 481.7085395 286.3425293 481.18685913 C283.28936738 479.97556854 280.23926197 478.75690469 277.19042969 477.53475952 C271.01548655 475.06504277 264.82364681 472.6387853 258.63134766 470.21298218 C256.2641543 469.28542551 253.89696689 468.35785366 251.52978516 467.43026733 C250.3317627 466.96082703 249.13374023 466.49138672 247.89941406 466.00772095 C229.39823469 458.75289338 210.91074523 451.46312161 192.42993164 444.15658569 C182.88949939 440.38603621 173.34213025 436.63341874 163.79150391 432.88876343 C162.54483204 432.39979165 161.29816866 431.91079824 160.05151367 431.42178345 C158.79687594 430.92965458 157.54223727 430.43752812 156.28759766 429.94540405 C155.66403885 429.70081326 155.04048004 429.45622246 154.39802551 429.20421982 C150.16656283 427.54464716 145.93418575 425.88741981 141.70166016 424.2305603 C136.12841363 422.04699605 130.55927938 419.85328591 124.99414062 417.6491394 C122.85072372 416.80038356 120.70651005 415.95363721 118.56152344 415.1088562 C115.5094436 413.90401985 112.46237499 412.68732176 109.41650391 411.46688843 C108.51295166 411.11204376 107.60939941 410.7571991 106.6784668 410.39160156 C100.91024509 408.06008191 96.28744539 405.94542205 93.04150391 400.38095093 C91.2933209 396.1853117 90.6663985 392.81921559 90.66007614 388.27554035 C90.656235 387.23855796 90.65239385 386.20157557 90.64843631 385.13316947 C90.64930279 383.99534827 90.65016927 382.85752707 90.65106201 381.68522644 C90.64809089 380.47534378 90.64511977 379.26546112 90.64205861 378.01891536 C90.63487801 374.65904517 90.63219927 371.29922611 90.63146114 367.93935192 C90.62960986 364.31617019 90.6220621 360.69299954 90.61532593 357.06982422 C90.60174461 349.1461573 90.59571809 341.22249545 90.59131527 333.29881883 C90.5885523 328.350489 90.58431482 323.40216113 90.5798111 318.45383263 C90.56761829 304.75147658 90.55731926 291.0491221 90.553936 277.34676075 C90.55360666 276.03129675 90.55360666 276.03129675 90.55327065 274.68925772 C90.55294324 273.37065569 90.55294324 273.37065569 90.55260921 272.02541524 C90.55216574 270.24410617 90.55171918 268.4627971 90.55126953 266.68148804 C90.5510481 265.79789825 90.55082667 264.91430846 90.55059853 264.00394323 C90.54665145 249.69013124 90.52920021 235.37637019 90.50591001 221.06257788 C90.48218748 206.36433446 90.46973373 191.66611659 90.46856809 176.96785372 C90.46765179 168.71635743 90.46191099 160.46492748 90.44374847 152.21344948 C90.42833526 145.18626944 90.42323419 138.15917627 90.43148658 131.13198254 C90.43538888 127.54807773 90.43448419 123.96434777 90.42042923 120.38046455 C90.4053148 116.49076581 90.41356937 112.60131209 90.42401123 108.71159363 C90.41192662 107.02159224 90.41192662 107.02159224 90.39959788 105.29744941 C90.45016597 97.23996599 91.12231087 89.88872857 96.82275391 83.79110718 C103.66535994 78.39776015 112.26536619 75.88924146 120.29150391 72.81845093 C147.17304393 62.46357199 173.97938662 51.91428272 200.79150391 41.38095093 C137.76150391 41.05095093 74.73150391 40.72095093 9.79150391 40.38095093 C9.83791016 71.46153687 9.88431641 102.5421228 9.93212891 134.56454468 C9.95255802 154.21102994 9.97200283 173.8575087 9.98681641 193.5039978 C9.99464803 203.82162501 10.00272999 214.13925198 10.01123047 224.45687866 C10.01281296 226.39662792 10.01281296 226.39662792 10.01442742 228.37556404 C10.03182989 249.25923674 10.06336806 270.14286543 10.10011509 291.02651202 C10.13750663 312.45497788 10.15973599 333.88342069 10.16785789 355.31191784 C10.17334935 368.53697715 10.19070064 381.76191213 10.22316977 394.98693318 C10.24429557 404.05289875 10.25070832 413.11879994 10.24550942 422.18478834 C10.24294465 427.41725211 10.24690687 432.64949845 10.26832581 437.88192368 C10.28779597 442.67325514 10.28877076 447.46422303 10.27509949 452.25557125 C10.27340989 453.98789413 10.27848009 455.72023973 10.29103664 457.45251792 C10.42044762 476.40978959 10.42044762 476.40978959 3.78369141 483.53720093 C-2.45538135 487.49705522 -7.97265544 489.21263681 -15.37255859 488.03720093 C-21.0938435 486.35836829 -25.18871525 482.4492858 -28.20849609 477.38095093 C-29.80169492 471.96615187 -30.49806754 467.04455479 -30.46017838 461.39109802 C-30.46308526 460.62449588 -30.46599214 459.85789374 -30.46898711 459.06806123 C-30.47626554 456.50829561 -30.46935387 453.94877131 -30.46246338 451.38900757 C-30.46476866 449.53164326 -30.46794564 447.67427986 -30.47191787 445.81691837 C-30.4802652 440.71970502 -30.47614084 435.62256658 -30.46994543 430.52535295 C-30.46542172 425.02562484 -30.47240431 419.52590964 -30.47790527 414.02618408 C-30.48680176 403.25484838 -30.48487611 392.48354054 -30.47907999 381.71220374 C-30.47456452 372.9586462 -30.4739501 364.20509646 -30.47612762 355.45153809 C-30.47643409 354.20601923 -30.47674056 352.96050038 -30.47705631 351.67723852 C-30.47769576 349.14704664 -30.47834418 346.61685476 -30.47900149 344.08666289 C-30.48454291 321.03368719 -30.47879476 297.98072466 -30.4683163 274.92775215 C-30.45882522 253.8870785 -30.45967448 232.84642906 -30.46923828 211.80575562 C-30.47994959 188.16154316 -30.48415621 164.51734138 -30.47801375 140.87312603 C-30.47737665 138.35220528 -30.47674791 135.83128453 -30.47612762 133.31036377 C-30.47581907 132.06999975 -30.47551052 130.82963573 -30.47519262 129.55168492 C-30.47346527 120.8079315 -30.47638166 112.06418666 -30.48108673 103.32043457 C-30.48669401 92.6657622 -30.48518232 82.01111931 -30.47452524 71.35645032 C-30.4692665 65.91957175 -30.4672153 60.48274232 -30.47382355 55.04586411 C-30.47978083 50.06932625 -30.47651145 45.09288313 -30.46586844 40.11635387 C-30.46363349 38.31565599 -30.46477283 36.51495011 -30.46962002 34.71425736 C-30.47570424 32.26632582 -30.46946063 29.81871851 -30.46017838 27.37080383 C-30.46486071 26.67215127 -30.46954304 25.97349871 -30.47436726 25.25367486 C-30.42448938 18.66942244 -29.59530771 12.13636955 -25.08349609 7.06845093 C-24.54466797 6.43294312 -24.00583984 5.7974353 -23.45068359 5.14266968 C-16.40391647 -0.39407592 -8.55118046 -0.04645309 0 0 Z M154.34619141 215.17391968 C151.16143625 220.57464083 151.04040927 226.26891835 151.79150391 232.38095093 C153.8130191 238.68332183 158.59508477 242.5778427 164.22900391 245.75595093 C170.64695048 247.32130375 175.32910489 246.75346842 181.03369141 243.58798218 C184.76159893 241.02815234 187.08411893 237.50172816 188.79150391 233.38095093 C189.67080305 226.38358088 189.78221042 219.82400533 185.39306641 214.03720093 C180.92843769 209.42012148 176.84912075 207.10223451 170.35400391 206.69345093 C163.54727805 207.04324101 158.60732806 209.88780691 154.34619141 215.17391968 Z " fill="#4CA4FF" transform="translate(107.20849609375,11.619049072265625)"/>
</svg>
