<?xml version="1.0" encoding="UTF-8"?>
<svg version="1.1" xmlns="http://www.w3.org/2000/svg" width="512" height="512">
<path d="M0 0 C2.7751053 -0.21450814 5.54676953 -0.35195587 8.32714844 -0.47900391 C9.23424561 -0.55892578 10.14134277 -0.63884766 11.07592773 -0.72119141 C13.85970761 -0.8075022 15.88429776 -0.72211263 18.51464844 0.20849609 C21.28566915 3.17882193 22.83474373 6.53825223 24.51464844 10.20849609 C25.35834738 11.82508843 26.20337515 13.44098804 27.04980469 15.05615234 C51.96656536 65.78532625 77.32930489 130.83054307 58.51464844 187.20849609 C58.17820312 188.22685547 57.84175781 189.24521484 57.49511719 190.29443359 C50.61736359 208.81333198 35.68663236 220.54668964 18.51464844 229.20849609 C5.46235155 235.17658909 -8.83601804 238.38992568 -23.19859314 238.32875061 C-23.94369709 238.32960504 -24.68880104 238.33045946 -25.4564839 238.33133978 C-27.93610215 238.33297791 -30.41565172 238.32750068 -32.89526367 238.32202148 C-34.67952472 238.32173923 -36.46378589 238.3218981 -38.24804688 238.32246399 C-43.0801331 238.32275046 -47.91219441 238.31687803 -52.74427485 238.30989003 C-57.79847382 238.30363145 -62.85267337 238.30305071 -67.90687561 238.30186462 C-77.47250075 238.29875869 -87.03811445 238.29055525 -96.60373455 238.28051513 C-107.49607019 238.26933108 -118.38840639 238.26383777 -129.28074634 238.2588197 C-151.68228776 238.24837203 -174.08381902 238.23078687 -196.48535156 238.20849609 C-196.67508545 236.92394531 -196.86481934 235.63939453 -197.06030273 234.31591797 C-197.32017625 232.60298195 -197.58036558 230.89009383 -197.84082031 229.17724609 C-197.96453003 228.33387695 -198.08823975 227.49050781 -198.21569824 226.62158203 C-201.39628943 205.9051645 -212.02101464 188.14642894 -228.48535156 175.20849609 C-246.86586155 162.10321613 -267.52687924 157.8067649 -289.74951172 160.48095703 C-303.50509255 162.84556382 -317.04055663 170.09490052 -327.48535156 179.20849609 C-328.45214844 179.96775391 -329.41894531 180.72701172 -330.41503906 181.50927734 C-333.65875663 184.21576372 -336.07068779 187.25932123 -338.48535156 190.70849609 C-338.91541504 191.32088135 -339.34547852 191.9332666 -339.78857422 192.56420898 C-349.13290794 206.22577248 -353.87048399 221.69930176 -354.48535156 238.20849609 C-368.9866148 239.12500852 -368.9866148 239.12500852 -375.00097656 234.57568359 C-377.86070487 231.94172331 -379.256317 229.89559979 -380.48535156 226.20849609 C-380.59757545 223.24298138 -380.65306604 220.30037687 -380.66235352 217.33422852 C-380.66892471 216.42659256 -380.67549591 215.5189566 -380.68226624 214.58381653 C-380.70199299 211.57719847 -380.71365993 208.57063033 -380.72363281 205.56396484 C-380.72770834 204.53714411 -380.73178387 203.51032337 -380.73598289 202.45238686 C-380.7568401 197.01847154 -380.77114384 191.58458145 -380.78051758 186.15063477 C-380.79158653 180.53827188 -380.82599323 174.92630498 -380.86568928 169.31408215 C-380.89183168 164.9980648 -380.90020727 160.68214219 -380.90379906 156.36605263 C-380.90867046 154.29720699 -380.92030015 152.22836573 -380.93883705 150.1595974 C-380.96317957 147.26306103 -380.9622724 144.36755456 -380.95532227 141.47094727 C-380.96813232 140.61826263 -380.98094238 139.765578 -380.99414062 138.88705444 C-380.94716224 133.5095452 -380.04188842 130.48300601 -376.48535156 126.20849609 C-371.85266861 122.12732302 -369.52814269 121.08325805 -363.39840698 121.08824158 C-362.09987793 121.08686691 -360.80134888 121.08549225 -359.46347046 121.08407593 C-358.01617409 121.08761532 -356.56887795 121.09125014 -355.12158203 121.0949707 C-353.60406496 121.09525265 -352.08654775 121.0950947 -350.56903076 121.0945282 C-346.44116979 121.0942405 -342.3133377 121.10013283 -338.18548346 121.10710216 C-333.87464385 121.11334022 -329.56380363 121.11393985 -325.25296021 121.11512756 C-317.08609834 121.11823954 -308.91924982 121.12645113 -300.75239384 121.13647705 C-291.45627465 121.14764233 -282.16015483 121.15314969 -272.8640306 121.15817249 C-253.73779668 121.16863385 -234.61157519 121.18623072 -215.48535156 121.20849609 C-215.14752655 122.02462372 -214.80970154 122.84075134 -214.4616394 123.68161011 C-214.01555328 124.75637604 -213.56946716 125.83114197 -213.10986328 126.93847656 C-212.44843826 128.533918 -212.44843826 128.533918 -211.77365112 130.16159058 C-207.4232596 140.45052675 -202.43943004 150.41952773 -195.48535156 159.20849609 C-194.89367187 159.96388672 -194.30199219 160.71927734 -193.69238281 161.49755859 C-177.61035327 180.79599405 -153.55159166 188.77046179 -129.48535156 192.20849609 C-128.5559375 192.34126953 -127.62652344 192.47404297 -126.66894531 192.61083984 C-96.15251891 196.09706696 -62.60396489 191.361803 -37.86035156 172.08349609 C-36.38580814 170.81036586 -34.92560016 169.52029747 -33.48535156 168.20849609 C-32.87820313 167.69287109 -32.27105469 167.17724609 -31.64550781 166.64599609 C-14.41142435 151.01417436 -6.41964917 125.2269949 -5.3125 102.68994141 C-4.44652252 74.01080483 -7.57433001 45.78121996 -11.85913086 17.46484375 C-11.96664673 16.74907669 -12.0741626 16.03330963 -12.18493652 15.29585266 C-12.4775909 13.35707466 -12.77559258 11.41910594 -13.07397461 9.48120117 C-13.42707344 6.6721271 -13.56999849 4.03329467 -13.48535156 1.20849609 C-9.00322231 0.62067586 -4.50244015 0.37770962 0 0 Z " fill="#25A3BC" transform="translate(391.4853515625,207.79150390625)"/>
<path d="M0 0 C16.23416946 15.49970626 21.79862198 44.07362865 27.95678711 65.0065918 C28.3100708 66.18906494 28.66335449 67.37153809 29.02734375 68.58984375 C29.33663818 69.64679443 29.64593262 70.70374512 29.96459961 71.79272461 C30.62551238 74.34489539 30.62551238 74.34489539 32.875 75.1875 C34.20540581 75.32913739 35.54212007 75.41358244 36.87890625 75.46875 C37.74515625 75.50548828 38.61140625 75.54222656 39.50390625 75.58007812 C40.95603516 75.63325195 40.95603516 75.63325195 42.4375 75.6875 C43.45585937 75.72810547 44.47421875 75.76871094 45.5234375 75.81054688 C52.78393445 76.08271083 60.04503006 76.27128591 67.30859375 76.4375 C68.21718643 76.45848755 69.12577911 76.4794751 70.06190491 76.50109863 C74.64345247 76.60589068 79.22502593 76.70475459 83.80688477 76.79492188 C85.52750826 76.83195006 87.24813008 76.86905616 88.96875 76.90625 C90.13796242 76.92655273 90.13796242 76.92655273 91.33079529 76.94726562 C96.24386599 77.05799396 101.00730141 77.50552521 105.875 78.1875 C105.93558594 78.92355469 105.99617187 79.65960938 106.05859375 80.41796875 C106.14238281 81.39378906 106.22617187 82.36960937 106.3125 83.375 C106.39371094 84.33792969 106.47492188 85.30085938 106.55859375 86.29296875 C106.85166151 88.97399602 107.30203754 91.5537986 107.875 94.1875 C86.67252541 101.5904382 62.54520349 104.76848753 40.1875 106 C39.30263916 106.05325439 38.41777832 106.10650879 37.50610352 106.16137695 C25.63909815 106.65878289 15.84174976 103.75861188 6.49609375 96.28515625 C-10.98482324 79.95949986 -19.82914468 55.63458216 -23.51171875 32.64453125 C-23.92840199 29.34394163 -23.92840199 29.34394163 -25.125 27.1875 C-27.12454746 27.14495644 -29.12541636 27.14669217 -31.125 27.1875 C-32.52948905 28.36777778 -32.52948905 28.36777778 -32.29296875 31.7109375 C-32.23165228 36.22825245 -31.45686009 40.42344179 -30.4375 44.8125 C-30.26323486 45.59085205 -30.08896973 46.3692041 -29.90942383 47.17114258 C-28.4577457 53.38381672 -26.43475392 59.17961594 -23.98046875 65.07421875 C-22.04979078 72.10047602 -25.2058072 78.63514658 -27.73046875 85.15234375 C-28.09215652 86.10331436 -28.4538443 87.05428497 -28.82649231 88.03407288 C-29.98172223 91.0670187 -31.14684899 94.09604607 -32.3125 97.125 C-33.07684637 99.12539345 -33.84052435 101.12604242 -34.60351562 103.12695312 C-34.97711212 104.10572418 -35.35070862 105.08449524 -35.73562622 106.09292603 C-36.47843439 108.03936885 -37.22084975 109.98596164 -37.96286011 111.93270874 C-39.63581689 116.31614805 -41.32021613 120.69354931 -43.04931641 125.05517578 C-43.33712479 125.79208145 -43.62493317 126.52898712 -43.92146301 127.28822327 C-44.44804431 128.63603176 -44.98299038 129.9806166 -45.52812195 131.32102966 C-46.47125185 133.75657667 -47.1216133 135.86514772 -47.14916992 138.48803711 C-45.50997521 141.20804531 -43.10244523 141.34033602 -40.125 142.1875 C-38.05716738 142.52551543 -35.97857379 142.80177238 -33.89526367 143.02539062 C-32.68347946 143.15892944 -31.47169525 143.29246826 -30.22319031 143.43005371 C-28.92621719 143.56657349 -27.62924408 143.70309326 -26.29296875 143.84375 C-24.93297081 143.99232328 -23.57305258 144.14162784 -22.21321106 144.29162598 C-17.91375987 144.76429973 -13.61317851 145.22615077 -9.3125 145.6875 C-4.33456943 146.22293682 0.64282581 146.762912 5.61945152 147.31034851 C7.59795485 147.52616931 9.57714816 147.7356348 11.55635071 147.94494629 C25.24704998 149.44198108 34.81842486 151.33946065 44.33203125 161.734375 C50.1607427 171.0012884 49.34762158 181.28441668 49.25 191.8125 C49.24534729 192.69942535 49.24069458 193.58635071 49.23590088 194.50015259 C49.09234061 217.95017114 46.56041029 240.8647668 42.875 264 C42.74961853 264.79095062 42.62423706 265.58190125 42.49505615 266.39682007 C38.54569718 291.01770968 38.54569718 291.01770968 31.875 296.1875 C28.14900457 297.42949848 24.74520783 297.72258555 20.875 297.1875 C16.91559481 295.09573877 14.26490131 292.95643211 11.875 289.1875 C11.50585651 287.07110214 11.50585651 287.07110214 11.51423645 284.75823975 C11.50805046 283.43738373 11.50805046 283.43738373 11.5017395 282.08984375 C11.51252533 281.13174805 11.52331116 280.17365234 11.53442383 279.18652344 C11.53398575 278.17156799 11.53354767 277.15661255 11.53309631 276.11090088 C11.53518638 272.75602993 11.55852824 269.40165866 11.58203125 266.046875 C11.58762641 263.72088901 11.59189689 261.39489948 11.59489441 259.06890869 C11.60634937 252.94663738 11.63582241 246.82457954 11.66900635 240.70239258 C11.69969304 234.45527026 11.71339677 228.20811346 11.72851562 221.9609375 C11.76069127 209.7030312 11.8118957 197.44528335 11.875 185.1875 C9.52740508 184.01370254 8.14234831 184.06032921 5.52575684 184.05619812 C4.61190216 184.05218994 3.69804749 184.04818176 2.75650024 184.04405212 C1.75082001 184.04458084 0.74513977 184.04510956 -0.29101562 184.0456543 C-1.87669846 184.04044266 -1.87669846 184.04044266 -3.49441528 184.03512573 C-5.79705781 184.02775876 -8.09970749 184.02241841 -10.40235901 184.01883507 C-14.05146051 184.01167912 -17.70042679 183.99601698 -21.3494873 183.97749329 C-31.7274383 183.92499697 -42.10531766 183.87708364 -52.48339844 183.86157227 C-58.82711679 183.85146812 -65.17049866 183.82207574 -71.51408386 183.78025246 C-73.92845611 183.76796656 -76.34287597 183.76281677 -78.75727844 183.76505089 C-82.14649066 183.76741425 -85.53474565 183.74515535 -88.92382812 183.7175293 C-90.40805771 183.72743141 -90.40805771 183.72743141 -91.92227173 183.73753357 C-101.48975485 183.61014959 -109.36701846 180.79446742 -116.375 174.16796875 C-125.03803787 164.36403973 -127.19024274 151.83154344 -127.125 139.1875 C-125.90425781 139.02894531 -124.68351562 138.87039062 -123.42578125 138.70703125 C-105.42744666 136.21912863 -87.19476148 130.81751391 -75.125 116.1875 C-74.11107589 113.12207521 -74.11107589 113.12207521 -74.125 110.1875 C-75.115 109.1975 -75.115 109.1975 -76.125 108.1875 C-79.1116351 108.37204005 -80.68232635 108.7971856 -82.94140625 110.7890625 C-83.51761719 111.45679688 -84.09382813 112.12453125 -84.6875 112.8125 C-95.6240814 124.21925219 -110.67320496 128.55681449 -126.125 129.1875 C-124.55400954 113.33690973 -118.15784012 101.10616246 -111.08203125 87.09765625 C-108.2018265 81.37406352 -105.43289216 75.6017073 -102.6875 69.8125 C-98.42475755 60.83440878 -94.0270917 51.93200965 -89.54638672 43.06079102 C-87.089165 38.17955328 -84.68345199 33.28507772 -82.390625 28.32421875 C-81.95500244 27.38529785 -81.51937988 26.44637695 -81.07055664 25.47900391 C-80.26522608 23.73206329 -79.46922504 21.98077264 -78.68530273 20.22412109 C-72.54687415 6.92216929 -62.89813265 -2.60922064 -49.140625 -7.84765625 C-31.75398012 -13.41048175 -14.45109344 -11.56087475 0 0 Z " fill="#25A3BC" transform="translate(219.125,88.8125)"/>
<path d="M0 0 C1.64137939 0.70926636 1.64137939 0.70926636 3.31591797 1.43286133 C19.62100149 8.54075032 35.74416498 16.06988419 51.875 23.5625 C50.10953093 27.37303732 47.8561997 29.5813003 44.875 32.5625 C39.49579716 38.7753196 35.67360497 45.30392631 32.125 52.6875 C31.61187256 53.73373535 31.09874512 54.7799707 30.57006836 55.85791016 C26.68629391 63.80202138 22.88337167 71.78591605 19.09082031 79.77392578 C15.61138494 87.08421702 12.01165248 94.32931699 8.375 101.5625 C-6.32078904 129.98911853 -6.32078904 129.98911853 -15.125 160.5625 C-24.50542404 156.80918082 -33.62855838 152.58418955 -42.75195312 148.25170898 C-45.11961994 147.12755442 -47.4893206 146.00778255 -49.859375 144.88867188 C-53.60887447 143.11583985 -57.35262795 141.33140272 -61.09188843 139.53707886 C-62.404437 138.90790429 -63.7180262 138.28089389 -65.03286743 137.65652466 C-66.71960947 136.85424437 -68.40101789 136.04077773 -70.08203125 135.2265625 C-71.46225464 134.56261475 -71.46225464 134.56261475 -72.87036133 133.88525391 C-77.15930865 131.36900956 -78.57434223 128.21447331 -80.125 123.5625 C-81.1661086 116.01788095 -78.79157883 110.54378491 -75.5 103.875 C-74.4830652 101.73828492 -73.4661385 99.60156599 -72.44921875 97.46484375 C-71.90700684 96.34190918 -71.36479492 95.21897461 -70.80615234 94.06201172 C-68.21653732 88.67143057 -65.70619653 83.24416715 -63.18777466 77.82009888 C-61.70837738 74.63811293 -60.22126874 71.45973813 -58.734375 68.28125 C-58.13214331 66.99349807 -57.52992978 65.70573765 -56.92773438 64.41796875 C-56.48071167 63.46204834 -56.48071167 63.46204834 -56.0246582 62.48681641 C-54.24707483 58.68466928 -52.47076401 54.88192733 -50.69613647 51.07839966 C-49.24087665 47.95945237 -47.78344312 44.84156706 -46.32080078 41.72607422 C-43.65982212 36.05051059 -41.02388118 30.36733838 -38.47929382 24.63845825 C-37.33230864 22.05839461 -36.17291376 19.48398767 -35.01296997 16.909729 C-34.2125304 15.1185128 -33.43101678 13.31887645 -32.65014648 11.51904297 C-29.81462931 5.23843979 -27.16253668 0.20020963 -21.125 -3.4375 C-13.12847631 -6.1030079 -7.37331342 -3.25900224 0 0 Z " fill="#25A3BC" transform="translate(98.125,56.4375)"/>
<path d="M0 0 C13.4562218 11.38603383 22.06828698 25.02971449 25.8125 42.25 C26.1425 46.54 26.4725 50.83 26.8125 55.25 C-18.7275 55.25 -64.2675 55.25 -111.1875 55.25 C-111.1875 35.44577375 -104.89174411 19.72567507 -91.1875 5.25 C-66.699678 -18.63846971 -27.05841642 -20.61593632 0 0 Z " fill="#25A3BB" transform="translate(158.1875,390.75)"/>
<path d="M0 0 C1.15117328 -0.00807831 1.15117328 -0.00807831 2.32560259 -0.01631981 C4.90518272 -0.03066283 7.48425427 -0.02348022 10.06385803 -0.01637268 C11.91000788 -0.02207295 13.7561542 -0.02903587 15.60229492 -0.03717041 C20.62293746 -0.05515508 25.64340573 -0.05392346 30.66407084 -0.04822803 C34.85163533 -0.04514377 39.03916596 -0.05122011 43.22672564 -0.05726677 C53.10378002 -0.07132788 62.98074793 -0.06973758 72.85780334 -0.05836487 C83.05585797 -0.0468822 93.25364966 -0.06095826 103.45166963 -0.08776134 C112.19993443 -0.10989532 120.94811656 -0.11656092 129.69640738 -0.11068493 C134.92463159 -0.10730861 140.15268724 -0.10977508 145.38088799 -0.12693596 C150.296702 -0.14236633 155.21212559 -0.13849311 160.12792397 -0.11963081 C161.93392231 -0.11593405 163.73994933 -0.11908491 165.54592133 -0.1295166 C168.00803804 -0.14265439 170.46884846 -0.13124432 172.9309082 -0.11352539 C173.64870876 -0.1231304 174.36650931 -0.1327354 175.1060614 -0.14263147 C178.47687719 -0.09258224 180.24957129 0.17650542 182.97147465 2.2339468 C185.09025747 5.16388399 185.04580046 7.16792717 185.06019592 10.76268005 C185.0679303 12.61119568 185.0679303 12.61119568 185.07582092 14.49705505 C185.06035217 15.7809613 185.04488342 17.06486755 185.02894592 18.38768005 C185.05214905 20.31353943 185.05214905 20.31353943 185.07582092 22.27830505 C185.07066467 23.5106488 185.06550842 24.74299255 185.06019592 26.01268005 C185.0556842 27.13932068 185.05117249 28.2659613 185.04652405 29.42674255 C184.39403392 33.15947851 183.53675157 34.1141299 180.52894592 36.38768005 C177.85801327 36.77862747 175.59957207 36.92459533 172.9309082 36.8888855 C172.16189936 36.89441989 171.39289051 36.89995429 170.60057837 36.9056564 C168.02160409 36.91927889 165.44359492 36.90428565 162.86463928 36.88938904 C161.01671945 36.89317161 159.16880244 36.89867114 157.32089233 36.90576172 C152.30030649 36.91974066 147.28006241 36.90852986 142.2594955 36.8920505 C137.01048804 36.8782178 131.76150078 36.88465797 126.51248169 36.88818359 C117.69817077 36.89088689 108.88399595 36.87739904 100.06971741 36.85423279 C89.87108497 36.82761409 79.67267999 36.82587814 69.47402471 36.83762115 C59.67200041 36.84838981 49.87005859 36.84221957 40.06804085 36.82806587 C35.89224364 36.82229897 31.71650665 36.82239425 27.54070854 36.82713127 C22.62656212 36.83189385 17.71266567 36.82182932 12.79856682 36.80017662 C10.99215539 36.79459905 9.18571998 36.79415231 7.37930679 36.79912949 C4.91925789 36.80505897 2.45997935 36.7926229 0 36.77536011 C-0.72003128 36.78137015 -1.44006255 36.7873802 -2.18191296 36.79357237 C-5.05219138 36.7567778 -7.00951117 36.70456511 -9.41373348 35.05387974 C-11.13455626 32.34208695 -10.86071649 29.80674146 -10.86949158 26.63768005 C-10.87236176 25.98315857 -10.87523193 25.32863708 -10.87818909 24.65428162 C-10.88022775 23.27243686 -10.87471154 21.89056312 -10.86216736 20.5087738 C-10.84610844 18.39483555 -10.86202009 16.28280892 -10.88121033 14.16893005 C-10.87922786 12.82517584 -10.8753841 11.48142281 -10.86949158 10.13768005 C-10.86610779 8.9156488 -10.862724 7.69361755 -10.85923767 6.43455505 C-10.47105408 3.38768005 -10.47105408 3.38768005 -9.41373348 1.72148037 C-6.45862717 -0.30742966 -3.46019805 -0.02888201 0 0 Z " fill="#26A2BC" transform="translate(10.471054077148438,281.61231994628906)"/>
<path d="M0 0 C7.81975242 6.23008676 13.75075795 15.16581922 15.61328125 25.08203125 C16.52085835 39.26106363 14.88505483 50.72357081 5.61328125 62.08203125 C-0.31181648 68.54103889 -9.35511194 74.43045726 -18.296875 75.2590332 C-33.13509525 75.68149161 -44.03980846 74.56293469 -55.38671875 64.08203125 C-63.16632412 56.56824383 -67.41306805 47.32703655 -67.73022461 36.58349609 C-67.89910742 23.16974939 -64.86930787 12.99833546 -55.38671875 3.08203125 C-39.62492492 -11.32598888 -17.34367221 -11.65239646 0 0 Z " fill="#25A3BC" transform="translate(283.38671875,16.91796875)"/>
<path d="M0 0 C1.44971947 -0.00043808 1.44971947 -0.00043808 2.9287262 -0.00088501 C6.11029159 0.00050379 9.29162025 0.01604394 12.47314453 0.03173828 C14.68417228 0.03547001 16.89520169 0.03831623 19.10623169 0.04031372 C24.91606234 0.04793759 30.72579247 0.06757546 36.5355835 0.08972168 C42.46788168 0.11020691 48.40019615 0.11932117 54.33251953 0.12939453 C65.96537612 0.15082246 77.5981582 0.18494344 89.23095703 0.22705078 C89.35626938 15.1634031 83.87998738 27.15532984 73.64501953 37.93798828 C61.87712737 49.09653975 48.78078969 52.75402127 32.92626953 52.50830078 C18.38222139 51.92066247 6.0075596 44.63492405 -3.76904297 34.22705078 C-11.21708085 24.74643767 -14.97117759 14.19503148 -15.76904297 2.22705078 C-10.41496761 0.01811945 -5.68720411 -0.0452293 0 0 Z " fill="#25A3BB" transform="translate(407.76904296875,450.77294921875)"/>
<path d="M0 0 C34.32 0 68.64 0 104 0 C100.04631795 18.45051622 93.96754389 30.62248014 78 41 C65.31039442 47.91963108 50.03113451 49.3459793 36.125 45.4375 C21.40891701 40.16052075 11.29885695 31.76665593 4 18 C1.36771801 11.72897526 0 6.8599845 0 0 Z " fill="#25A3BC" transform="translate(64,456)"/>
<path d="M0 0 C15.68053366 3.57148814 29.33858756 14.56971577 38 28 C44.14402731 38.7680146 48 48.43205618 48 61 C19.62 61 -8.76 61 -38 61 C-36.73217291 57.19651872 -35.30111615 56.63365921 -32 54.4375 C-15.4633231 42.64390097 -7.47003315 26.00068516 -2 7 C-1.80132324 6.31164062 -1.60264648 5.62328125 -1.39794922 4.9140625 C-0.92830506 3.27708759 -0.4635803 1.63870247 0 0 Z " fill="#25A3BC" transform="translate(464,380)"/>
<path d="M0 0 C5.259375 0.0825 10.51875 0.165 15.9375 0.25 C15.9375 18.4 15.9375 36.55 15.9375 55.25 C-17.6625 55.25 -17.6625 55.25 -27.0625 49.25 C-26.0625 46.25 -26.0625 46.25 -23.6875 43.9375 C-18.7311275 38.86311863 -17.45686002 33.9833975 -16.99609375 27.0625 C-17.15707294 20.24455794 -19.9010608 14.58184397 -24.0625 9.25 C-25.0525 8.59 -26.0425 7.93 -27.0625 7.25 C-26.0625 4.25 -26.0625 4.25 -24.59594727 3.09082031 C-16.70484726 -0.84666108 -8.60605759 -0.19099219 0 0 Z " fill="#26A3BC" transform="translate(391.0625,143.75)"/>
<path d="M0 0 C4.95 0 9.9 0 15 0 C17 2 17 2 17.22705078 3.97119141 C17.21657715 4.75671387 17.20610352 5.54223633 17.1953125 6.3515625 C17.18886719 7.20234375 17.18242187 8.053125 17.17578125 8.9296875 C17.15902344 9.81914062 17.14226562 10.70859375 17.125 11.625 C17.11597656 12.5221875 17.10695313 13.419375 17.09765625 14.34375 C17.0740497 16.56276586 17.0411231 18.78125077 17 21 C17.96421875 20.95359375 18.9284375 20.9071875 19.921875 20.859375 C21.18515625 20.82328125 22.4484375 20.7871875 23.75 20.75 C25.00296875 20.70359375 26.2559375 20.6571875 27.546875 20.609375 C31 21 31 21 33.4609375 22.8203125 C35 25 35 25 34.875 28.125 C34 31 34 31 32 33 C29.41935871 33.14497985 26.95056116 33.18677545 24.375 33.125 C23.66859375 33.11597656 22.9621875 33.10695312 22.234375 33.09765625 C20.48943902 33.07407603 18.74467705 33.03820461 17 33 C17.02094727 33.55985596 17.04189453 34.11971191 17.06347656 34.6965332 C17.14666202 37.23500586 17.19866381 39.773192 17.25 42.3125 C17.30027344 43.63411133 17.30027344 43.63411133 17.3515625 44.98242188 C17.36445313 45.82998047 17.37734375 46.67753906 17.390625 47.55078125 C17.41157227 48.33106689 17.43251953 49.11135254 17.45410156 49.9152832 C17 52 17 52 13 55 C8.71 55 4.42 55 0 55 C0 36.85 0 18.7 0 0 Z " fill="#26A3BC" transform="translate(418,144)"/>
<path d="M0 0 C4.2573182 2.04643622 6.55235645 4.85094871 8.4140625 9.16015625 C9.84778524 14.50831938 8.7486485 18.893328 6.3203125 23.75 C3.29792787 27.18081498 0.64879087 28.99469911 -3.9453125 29.65625 C-8.66778548 29.87254647 -11.97463323 29.02293349 -15.9921875 26.375 C-20.43645888 21.45026685 -21.35391586 18.42105317 -21.26953125 11.9140625 C-20.71585463 6.84519202 -17.98066853 4.24854138 -14.3046875 1 C-9.44025366 -1.38632604 -5.18820051 -1.62767075 0 0 Z " fill="#25A3BC" transform="translate(355.9921875,156.625)"/>
</svg>
