<?xml version="1.0" encoding="UTF-8"?>
<svg version="1.1" xmlns="http://www.w3.org/2000/svg" width="512" height="512">
<path d="M0 0 C12.88994175 10.95010523 12.88994175 10.95010523 17.77734375 17.109375 C21.85137402 20.1648977 24.14428936 19.47678995 29.046875 18.80078125 C60.51582311 15.07723032 93.44897589 24.05406695 119.02734375 42.671875 C147.54067443 65.22545214 166.15900028 94.95539667 170.77734375 131.359375 C171.659621 148.45973344 171.95060108 165.89498541 166.77734375 182.359375 C166.5359668 183.14022461 166.29458984 183.92107422 166.04589844 184.72558594 C156.12967313 215.87126468 134.90076257 243.86733416 105.77734375 259.359375 C104.45141987 259.72105823 103.11881111 260.06045327 101.77734375 260.359375 C101.7873365 262.18101669 101.7873365 262.18101669 101.79753113 264.03945923 C101.8583577 275.48672274 101.9033239 286.93395345 101.93278027 298.38134193 C101.94843318 304.26650353 101.96966492 310.15153461 102.00366211 316.03662109 C102.03626845 321.71651873 102.05419958 327.39629086 102.06197548 333.07627487 C102.06751666 335.24280142 102.0783372 337.40932113 102.09453392 339.57579422 C102.1163248 342.61138989 102.11930994 345.64646755 102.11791992 348.68212891 C102.13409866 350.02432999 102.13409866 350.02432999 102.15060425 351.39364624 C102.12554053 356.4552325 101.70266196 360.03941646 98.77734375 364.359375 C95.04340351 367.9392022 92.74765774 368.85943465 87.60066986 368.85994625 C85.72500391 368.87466769 85.72500391 368.87466769 83.81144571 368.88968652 C82.42650005 368.88034767 81.04155688 368.87063212 79.65661621 368.86058044 C78.1833052 368.8644731 76.70999795 368.87011326 75.23669958 368.87735134 C71.18715413 368.89212928 67.1379966 368.88191106 63.08846354 368.86761463 C58.72166055 368.85652194 54.35491273 368.86844178 49.9881134 368.87745667 C41.43317499 368.89140277 32.878384 368.88382285 24.32345259 368.86878108 C14.36480835 368.85193652 4.40620099 368.85512928 -5.5524531 368.85887516 C-23.31901549 368.86475626 -41.08550705 368.8505724 -58.85205078 368.82592773 C-76.0991481 368.80200624 -93.34615079 368.79492316 -110.59326172 368.80541992 C-129.36578941 368.81682457 -148.1382733 368.8187648 -166.91080046 368.80432183 C-168.91186237 368.80279596 -170.91292429 368.8012756 -172.91398621 368.79976082 C-173.89859507 368.799003 -174.88320394 368.79824519 -175.89764944 368.79746441 C-182.84240217 368.79271808 -189.78713538 368.7945755 -196.73188782 368.79882622 C-205.19307218 368.80374864 -213.65416698 368.79778747 -222.11533082 368.77793192 C-226.43389628 368.76804799 -230.75232527 368.76296664 -235.07089806 368.77082443 C-239.02233394 368.7778672 -242.9734941 368.77110973 -246.92489356 368.7532208 C-248.35617769 368.74916715 -249.78748685 368.75019152 -251.21876174 368.75673967 C-253.16115992 368.7648673 -255.10361142 368.75280187 -257.04598236 368.73969173 C-258.12585466 368.7386626 -259.20572696 368.73763348 -260.31832266 368.73657316 C-264.51256446 368.19184913 -267.16124503 366.53450885 -269.97265625 363.421875 C-271.97413857 360.11942918 -272.3479048 357.04926471 -272.34291077 353.23382568 C-272.34497276 352.01393951 -272.34497276 352.01393951 -272.34707642 350.76940918 C-272.3416835 349.44447449 -272.3416835 349.44447449 -272.33618164 348.09277344 C-272.33632767 347.15584656 -272.33647369 346.21891968 -272.33662415 345.25360107 C-272.33592782 342.15862712 -272.32814848 339.06371344 -272.3203125 335.96875 C-272.31844733 333.82212354 -272.31702389 331.67549666 -272.31602478 329.52886963 C-272.31220743 323.88015568 -272.30238379 318.23146746 -272.2913208 312.58276367 C-272.28108989 306.81820016 -272.27652355 301.05363248 -272.27148438 295.2890625 C-272.26076085 283.97915537 -272.24369378 272.66926732 -272.22265625 261.359375 C-273.35671654 260.74741524 -273.35671654 260.74741524 -274.51368713 260.12309265 C-275.50505173 259.58578018 -276.49641632 259.04846771 -277.51782227 258.49487305 C-278.50073746 257.96314987 -279.48365265 257.4314267 -280.49635315 256.8835907 C-308.31294892 241.33194791 -328.26402484 212.45527555 -337.22265625 182.359375 C-337.41875488 181.72386719 -337.61485352 181.08835938 -337.81689453 180.43359375 C-344.13673033 159.14355001 -343.77696156 132.52868379 -337.22265625 111.359375 C-337.00834961 110.63943359 -336.79404297 109.91949219 -336.57324219 109.17773438 C-326.595036 76.32372796 -304.06105156 49.77034328 -274.07519531 33.33203125 C-263.41677123 27.73593722 -249.53001447 20.63202648 -237.22265625 22.359375 C-234.11913167 23.96860997 -232.00564201 25.36284767 -229.84765625 28.109375 C-228.00712078 34.73530269 -229.46044573 39.93096076 -232.41015625 45.921875 C-233.06077347 47.33113458 -233.70651824 48.74265268 -234.34765625 50.15625 C-234.66734375 50.86072266 -234.98703125 51.56519531 -235.31640625 52.29101562 C-242.60010004 68.91479089 -246.31898096 87.89581504 -246.59765625 105.984375 C-246.63503906 106.9125 -246.67242187 107.840625 -246.7109375 108.796875 C-246.77079783 113.43937639 -246.76874076 115.63033831 -243.9140625 119.44140625 C-240.49940445 121.87478376 -238.41588267 122.43294038 -234.22265625 122.359375 C-230.16362772 120.29156802 -227.9003621 118.57386727 -226.22265625 114.359375 C-225.84969391 112.0002485 -225.84969391 112.0002485 -225.765625 109.45703125 C-225.70793945 108.49474609 -225.65025391 107.53246094 -225.59082031 106.54101562 C-225.53120117 105.51169922 -225.47158203 104.48238281 -225.41015625 103.421875 C-222.8793546 68.07607982 -208.81704391 37.65545703 -184.22265625 12.359375 C-183.68189453 11.79814941 -183.14113281 11.23692383 -182.58398438 10.65869141 C-166.1506158 -6.14649361 -144.80443958 -17.54319678 -122.22265625 -23.640625 C-121.50480957 -23.84800293 -120.78696289 -24.05538086 -120.04736328 -24.26904297 C-79.97113278 -35.54243225 -32.54016377 -25.74004539 0 0 Z M-218.84765625 207.109375 C-219.73324219 207.59664062 -219.73324219 207.59664062 -220.63671875 208.09375 C-223.21920054 210.1546468 -224.05146447 212.34483844 -224.59375 215.55859375 C-225.33229839 243.23243622 -204.85205558 273.50193152 -187.22265625 293.359375 C-183.29040771 296.98877235 -183.29040771 296.98877235 -178.22265625 297.859375 C-174.16472127 297.64499353 -172.04399158 296.34667123 -169.22265625 293.359375 C-166.93411631 290.09003222 -166.75103407 287.2895598 -167.22265625 283.359375 C-169.82908744 279.15168339 -172.78743748 275.21648846 -175.72265625 271.234375 C-187.7226155 254.60365058 -198.49177189 237.39653365 -201.484375 216.85546875 C-202.22236619 213.36074856 -203.10009146 211.20671801 -205.22265625 208.359375 C-210.00870837 205.40627901 -213.77679405 204.205357 -218.84765625 207.109375 Z M-90.84765625 207.109375 C-91.73324219 207.59664062 -91.73324219 207.59664062 -92.63671875 208.09375 C-94.68765595 209.73045851 -95.27149283 210.89314809 -96.22265625 213.359375 C-96.41729813 215.84758975 -96.5062659 218.22328234 -96.49731445 220.71069336 C-96.50242538 221.44451736 -96.50753632 222.17834137 -96.51280212 222.93440247 C-96.52668299 225.35609125 -96.52574254 227.77749495 -96.5234375 230.19921875 C-96.52732523 231.88546352 -96.53166006 233.57170731 -96.53642273 235.25794983 C-96.54388167 238.7910581 -96.54359601 242.32406644 -96.53833008 245.85717773 C-96.53253553 250.38109693 -96.54946751 254.9046067 -96.57267475 259.42845821 C-96.58741824 262.91063319 -96.58828297 266.3927097 -96.58516502 269.87491035 C-96.58567792 271.54264703 -96.59090967 273.21038926 -96.60097694 274.87809563 C-96.61333635 277.21188718 -96.60655325 279.54488296 -96.5949707 281.87866211 C-96.60261444 282.56505768 -96.61025818 283.25145325 -96.61813354 283.95864868 C-96.56021799 289.24767363 -95.09368522 292.34975129 -91.53515625 296.171875 C-88.11135771 297.93004182 -84.93015947 298.13503306 -81.22265625 297.359375 C-77.70080369 295.38259324 -75.52308462 293.2606601 -74.22265625 289.359375 C-74.11677228 286.93745754 -74.06543635 284.54388419 -74.06152344 282.12158203 C-74.05655853 281.38790405 -74.05159363 280.65422607 -74.04647827 279.89831543 C-74.0318737 277.47126324 -74.02505771 275.04427641 -74.01953125 272.6171875 C-74.01377864 270.92951455 -74.00802092 269.24184162 -74.0022583 267.5541687 C-73.99175334 264.01511328 -73.98590729 260.47608054 -73.98242188 256.93701172 C-73.97693646 252.40524428 -73.95290541 247.87377719 -73.92444992 243.34210396 C-73.9058143 239.85565315 -73.90061746 236.36927458 -73.899086 232.88277817 C-73.89606131 231.21224194 -73.88803896 229.54170693 -73.87490082 227.87121964 C-73.85781974 225.53256704 -73.85972523 223.19464694 -73.86621094 220.85595703 C-73.85699615 220.16799042 -73.84778137 219.4800238 -73.83828735 218.77120972 C-73.87562819 214.46654781 -74.57806621 211.77351849 -77.22265625 208.359375 C-82.00870837 205.40627901 -85.77679405 204.205357 -90.84765625 207.109375 Z M37.15234375 207.109375 C36.56195313 207.43421875 35.9715625 207.7590625 35.36328125 208.09375 C31.40193825 211.2550188 31.33489945 215.72571204 30.65234375 220.484375 C27.10526746 241.2070188 14.35172591 259.64610468 1.6171875 275.9140625 C-1.97871894 280.6822601 -1.97871894 280.6822601 -3.66015625 286.296875 C-3.10332755 290.19467588 -1.65682948 292.29927151 0.77734375 295.359375 C3.94073732 297.46830404 5.90082883 297.90576764 9.67578125 297.7980957 C16.48185178 296.37726523 21.27161559 288.49433838 25.02734375 283.171875 C25.58309082 282.39086426 26.13883789 281.60985352 26.71142578 280.80517578 C39.28477411 262.83864528 56.97814829 236.39726445 53.77734375 213.359375 C52.36467188 209.59225 51.26410593 208.65971762 47.83984375 206.546875 C43.69875029 204.94114488 40.94608017 204.93675062 37.15234375 207.109375 Z " fill="#1B9EC3" transform="translate(341.22265625,27.640625)"/>
<path d="M0 0 C1.2283102 -0.00384115 2.4566204 -0.00768229 3.72215211 -0.01163983 C5.08213581 -0.01085965 6.44211946 -0.00998087 7.80210304 -0.00901413 C9.2492352 -0.0115986 10.69636665 -0.01461199 12.14349711 -0.01801753 C16.12064207 -0.02608086 20.09776897 -0.02787673 24.07492113 -0.028615 C28.36403735 -0.03046666 32.65314421 -0.03801448 36.94225502 -0.04475021 C46.32022775 -0.05832835 55.6981962 -0.06435717 65.07617712 -0.06876087 C70.93089164 -0.07152363 76.78560451 -0.07576099 82.64031792 -0.08026505 C98.84845755 -0.092456 115.05659587 -0.10275633 131.26473999 -0.10614014 C132.82053251 -0.10646949 132.82053251 -0.10646949 134.40775517 -0.10680549 C135.4474332 -0.10702377 136.48711123 -0.10724204 137.55829465 -0.10746694 C139.66508699 -0.1079104 141.77187932 -0.10835697 143.87867165 -0.10880661 C144.92371375 -0.10902804 145.96875585 -0.10924947 147.0454659 -0.10947761 C163.98597151 -0.11342722 180.92643414 -0.130887 197.86692314 -0.15416613 C215.25687778 -0.17787022 232.64681084 -0.19034152 250.03678191 -0.19150805 C259.80173307 -0.19242524 269.56662821 -0.19818857 279.33156395 -0.21632767 C287.64481991 -0.23171578 295.95800253 -0.23685666 304.27127002 -0.22858956 C308.5131354 -0.22467877 312.75485302 -0.22563363 316.99670029 -0.23964691 C320.88037451 -0.25235975 324.76378954 -0.25121149 328.64746328 -0.2390562 C330.05187299 -0.23709468 331.45630091 -0.24019866 332.86068504 -0.24890056 C346.02376529 -0.32529405 346.02376529 -0.32529405 351.92261696 3.13142776 C356.26576203 7.76411584 356.09422321 12.63378332 356.12574196 18.68220901 C356.13144203 19.53260254 356.13714211 20.38299606 356.14301491 21.25915909 C356.15246752 23.06560906 356.15899993 24.8720763 356.16285133 26.67854691 C356.17244625 29.39558724 356.20341903 32.11183421 356.23511696 34.82869339 C356.34260514 52.23298752 354.36553772 67.98000945 341.95777321 81.28767776 C331.36071133 90.88808699 319.4327049 94.75147703 305.36060524 94.63936234 C303.53280116 94.64872228 303.53280116 94.64872228 301.66807175 94.65827131 C298.31617092 94.67138463 294.96517772 94.6667763 291.6133337 94.65432644 C287.98680382 94.6452267 284.36034974 94.65926992 280.73383522 94.67024612 C273.64156381 94.68798373 266.54946223 94.68421269 259.45718431 94.67259556 C253.69045976 94.6635427 247.92378262 94.66234523 242.15705299 94.66669083 C241.33466169 94.66730376 240.51227038 94.66791669 239.66495812 94.6685482 C237.99401202 94.66982717 236.32306594 94.67112402 234.65211987 94.67243856 C219.0029345 94.68383042 203.35384302 94.67075259 187.70467305 94.6492371 C174.29224798 94.63136737 160.87996141 94.63447187 147.46753883 94.65291214 C131.8723485 94.67434354 116.27724036 94.68273191 100.68203735 94.67046309 C99.01741856 94.66918896 97.35279975 94.66793147 95.68818092 94.66669083 C94.86926876 94.66607372 94.0503566 94.66545662 93.20662892 94.66482082 C87.45033736 94.66137472 81.69409816 94.66718026 75.93781471 94.67660904 C68.91777315 94.68785566 61.89791037 94.68473324 54.87788916 94.66348606 C51.29972914 94.65301127 47.72186665 94.64879221 44.14370918 94.66208267 C40.25718268 94.67629963 36.37113781 94.65926464 32.48462868 94.63936234 C31.36467066 94.64828522 30.24471264 94.65720811 29.0908165 94.66640139 C16.26404184 94.53936018 5.25323783 89.61230539 -4.33519554 81.13533401 C-17.43096715 67.56652123 -18.43779001 50.8007977 -18.39305687 33.02351761 C-18.38987277 30.37288016 -18.41351256 27.72333614 -18.43871117 25.07283401 C-18.44098253 23.36840832 -18.44168841 21.66397966 -18.44066429 19.95955276 C-18.44987404 19.17711197 -18.45908379 18.39467117 -18.46857262 17.58852005 C-18.41954122 11.72583963 -17.52291394 6.57695866 -13.20238304 2.25642776 C-9.00139154 0.03237344 -4.67511268 0.00549475 0 0 Z " fill="#1C9EC3" transform="translate(87.07738304138184,417.8685722351074)"/>
</svg>
