<?xml version="1.0" encoding="UTF-8"?>
<svg version="1.1" xmlns="http://www.w3.org/2000/svg" width="512" height="512">
<path d="M0 0 C1.3365287 -0.01469078 1.3365287 -0.01469078 2.70005798 -0.02967834 C22.60828118 -0.20334589 41.90456474 -0.03544421 61.4453125 4.23828125 C62.92451172 4.55974121 62.92451172 4.55974121 64.43359375 4.88769531 C113.29447026 15.88619536 161.14969796 42.34158506 193.4453125 81.23828125 C194.22777344 82.1096875 195.01023437 82.98109375 195.81640625 83.87890625 C224.76774894 116.38002403 243.92344787 159.36421165 250.4453125 202.23828125 C250.62046387 203.358396 250.79561523 204.47851074 250.97607422 205.63256836 C252.5800588 216.94273439 252.84456538 228.13833039 252.8203125 239.55078125 C252.81949677 240.99969254 252.81949677 240.99969254 252.81866455 242.47787476 C252.67723335 297.28359543 233.91294268 351.1405859 198.4453125 393.23828125 C198.00074707 393.77163086 197.55618164 394.30498047 197.09814453 394.85449219 C188.22536736 405.48522354 179.07675597 415.36819695 168.21484375 424.02734375 C166.40012249 425.47604929 164.60476024 426.94942113 162.83203125 428.44921875 C121.52207816 463.33317913 66.69507132 480.72710773 13.1328125 480.61328125 C12.16687164 480.61273743 11.20093079 480.6121936 10.20571899 480.6116333 C-5.69146444 480.57060916 -20.9742443 479.64585488 -36.5546875 476.23828125 C-37.54082031 476.02397461 -38.52695313 475.80966797 -39.54296875 475.58886719 C-80.68601851 466.32763679 -118.66455293 447.01341561 -149.5546875 418.23828125 C-150.94613416 417.02489906 -152.34177389 415.81630322 -153.7421875 414.61328125 C-160.23579506 408.92488103 -165.82997583 402.84849748 -171.23828125 396.11328125 C-172.72964128 394.26228465 -174.24130496 392.42737276 -175.77734375 390.61328125 C-186.48593264 377.92162035 -194.84788293 363.9027082 -202.5546875 349.23828125 C-202.90241211 348.58762695 -203.25013672 347.93697266 -203.60839844 347.26660156 C-214.77726192 326.11658788 -221.86063665 301.78641992 -225.5546875 278.23828125 C-225.73725098 277.08271729 -225.91981445 275.92715332 -226.10791016 274.73657227 C-227.70824137 263.46656388 -227.95385383 252.29750635 -227.9296875 240.92578125 C-227.92914368 239.95984039 -227.92859985 238.99389954 -227.92803955 237.99868774 C-227.88701541 222.10150431 -226.96226113 206.81872445 -223.5546875 191.23828125 C-223.34038086 190.25214844 -223.12607422 189.26601562 -222.90527344 188.25 C-213.64404304 147.10695024 -194.32982186 109.12841582 -165.5546875 78.23828125 C-164.34130531 76.84683459 -163.13270947 75.45119486 -161.9296875 74.05078125 C-123.16385022 29.67058133 -58.73818865 0.53610464 0 0 Z M1.4453125 101.23828125 C-2.6039047 106.38188148 -3.6715072 110.60157979 -3.69512939 117.03094482 C-3.70083954 117.96719696 -3.70654968 118.9034491 -3.71243286 119.86807251 C-3.71355072 120.88323944 -3.71466858 121.89840637 -3.71582031 122.94433594 C-3.72078522 124.02300934 -3.72575012 125.10168274 -3.73086548 126.21304321 C-3.74546075 129.77875407 -3.75228485 133.34442044 -3.7578125 136.91015625 C-3.76356624 139.3925171 -3.76932394 141.87487794 -3.77508545 144.35723877 C-3.78558802 149.56238003 -3.79143553 154.76750588 -3.79492188 159.97265625 C-3.79961797 166.63160061 -3.82442984 173.29031115 -3.85289383 179.94919968 C-3.87154793 185.07770375 -3.8767273 190.20615878 -3.87825775 195.33469391 C-3.88127866 197.78900522 -3.88928816 200.24331578 -3.90244293 202.69759369 C-3.91956049 206.13676891 -3.91760893 209.57544751 -3.91113281 213.01464844 C-3.9203476 214.02171844 -3.92956238 215.02878845 -3.9390564 216.06637573 C-3.90113082 222.51900399 -3.61821182 229.81153854 0.89728928 234.86240768 C5.64402228 238.91755222 8.84143103 239.59427539 14.90625 239.515625 C18.66991652 239.10451681 20.66321437 237.75541765 23.4453125 235.23828125 C27.4945297 230.09468102 28.5621322 225.87498271 28.58575439 219.44561768 C28.59146454 218.50936554 28.59717468 217.5731134 28.60305786 216.60848999 C28.60417572 215.59332306 28.60529358 214.57815613 28.60644531 213.53222656 C28.61141022 212.45355316 28.61637512 211.37487976 28.62149048 210.26351929 C28.63608575 206.69780843 28.64290985 203.13214206 28.6484375 199.56640625 C28.65419124 197.0840454 28.65994894 194.60168456 28.66571045 192.11932373 C28.67621302 186.91418247 28.68206053 181.70905662 28.68554688 176.50390625 C28.69024297 169.84496189 28.71505484 163.18625135 28.74351883 156.52736282 C28.76217293 151.39885875 28.7673523 146.27040372 28.76888275 141.14186859 C28.77190366 138.68755728 28.77991316 136.23324672 28.79306793 133.77896881 C28.81018549 130.33979359 28.80823393 126.90111499 28.80175781 123.46191406 C28.8109726 122.45484406 28.82018738 121.44777405 28.8296814 120.41018677 C28.79175582 113.95755851 28.50883682 106.66502396 23.99333572 101.61415482 C19.24660272 97.55901028 16.04919397 96.88228711 9.984375 96.9609375 C6.22070848 97.37204569 4.22741063 98.72114485 1.4453125 101.23828125 Z M-83.8046875 133.73828125 C-84.36260986 134.26381592 -84.92053223 134.78935059 -85.49536133 135.33081055 C-110.26503618 158.92583378 -129.13283388 191.87563731 -130.71582031 226.79248047 C-130.76180582 230.89962781 -130.80134805 235.00587182 -130.8046875 239.11328125 C-130.80536224 239.85537842 -130.80603699 240.59747559 -130.80673218 241.36206055 C-130.79091376 252.29598415 -130.3311447 262.60841654 -127.5546875 273.23828125 C-127.40435059 273.88442383 -127.25401367 274.53056641 -127.09912109 275.19628906 C-121.39487549 299.68367361 -108.15276295 320.7185217 -91.5546875 339.23828125 C-90.49701172 340.42357422 -90.49701172 340.42357422 -89.41796875 341.6328125 C-78.9821122 352.66500371 -65.96618617 361.27578025 -52.5546875 368.23828125 C-51.41 368.84285156 -50.2653125 369.44742188 -49.0859375 370.0703125 C-35.06756258 377.19393175 -19.19536601 381.72959553 -3.5546875 383.23828125 C-2.30300781 383.37105469 -1.05132812 383.50382812 0.23828125 383.640625 C36.61964634 386.95872409 74.114056 375.2243299 102.4453125 352.23828125 C106.96635475 348.43013271 111.24864094 344.39873858 115.4453125 340.23828125 C116.30769531 339.38878906 117.17007813 338.53929687 118.05859375 337.6640625 C143.13907583 311.54356043 155.9224343 276.02414366 155.8203125 240.17578125 C155.81976868 239.45317108 155.81922485 238.73056091 155.81866455 237.98605347 C155.7774199 226.02328903 154.78629761 214.76391708 151.4453125 203.23828125 C151.12385254 202.09431885 151.12385254 202.09431885 150.79589844 200.92724609 C142.97232913 173.7155738 125.39173874 142.59760344 100.73828125 127.23828125 C96.61817576 125.44143797 92.81832438 125.37410854 88.4453125 126.23828125 C83.60672702 128.56797056 80.77500181 131.39969577 78.4453125 136.23828125 C77.66007785 141.15801673 77.63867338 144.78747771 80.09375 149.203125 C82.62937197 152.47584638 85.45250157 155.11238042 88.5703125 157.80078125 C108.37697252 175.58112754 121.9474789 201.89325851 123.6628418 228.62866211 C123.78496916 232.35568702 123.82552525 236.07177286 123.8203125 239.80078125 C123.81976868 240.45991516 123.81922485 241.11904907 123.81866455 241.79815674 C123.77712344 252.77929939 122.83026038 262.79491845 119.4453125 273.23828125 C119.23100586 273.91987305 119.01669922 274.60146484 118.79589844 275.30371094 C109.99059441 302.64244965 91.03499894 325.99264335 65.42675781 339.28613281 C48.56215029 347.4960017 31.64947971 351.63951499 12.8828125 351.61328125 C11.89411163 351.61246552 11.89411163 351.61246552 10.88543701 351.6116333 C-0.09570564 351.57009219 -10.1113247 350.62322913 -20.5546875 347.23828125 C-21.2362793 347.02397461 -21.91787109 346.80966797 -22.62011719 346.58886719 C-36.84727181 342.00656282 -49.24259827 335.05208051 -60.5546875 325.23828125 C-61.37453125 324.5628125 -62.194375 323.88734375 -63.0390625 323.19140625 C-82.44680674 306.67674189 -96.04390323 280.63307075 -98.5546875 255.23828125 C-98.68617188 253.995625 -98.81765625 252.75296875 -98.953125 251.47265625 C-101.46246675 223.6343395 -94.44395796 195.68238781 -77.5546875 173.23828125 C-76.85601562 172.30628906 -76.15734375 171.37429687 -75.4375 170.4140625 C-70.81711435 164.5193712 -65.76839718 159.45436076 -60.1328125 154.52734375 C-53.47274331 148.66575783 -53.47274331 148.66575783 -50.6484375 140.578125 C-50.46115343 135.90382663 -51.83560608 132.12086226 -54.9921875 128.6640625 C-59.25905951 124.94121667 -62.67196271 124.13990527 -68.2265625 123.8125 C-74.48347653 124.95680139 -79.33528132 129.49244953 -83.8046875 133.73828125 Z " fill="#1C8796" transform="translate(243.5546875,15.76171875)"/>
</svg>
