<?xml version="1.0" encoding="UTF-8"?>
<svg version="1.1" xmlns="http://www.w3.org/2000/svg" width="512" height="512">
<path d="M0 0 C1.01790619 0.00215515 2.03581238 0.0043103 3.08456421 0.00653076 C17.69363523 0.05620146 32.02575853 0.30709809 46.375 3.3125 C47.34985352 3.51117676 48.32470703 3.70985352 49.32910156 3.91455078 C97.7109774 14.03517194 141.69928269 35.9516877 177.375 70.3125 C178.3640332 71.26068604 178.3640332 71.26068604 179.37304688 72.22802734 C188.86130305 81.37247479 197.6012044 90.66984009 205.375 101.3125 C206.23306152 102.46355017 207.09113451 103.61459177 207.94921875 104.765625 C213.98736829 112.95680614 219.34595521 121.47054105 224.375 130.3125 C224.73948242 130.94430176 225.10396484 131.57610352 225.47949219 132.22705078 C247.08534998 169.97532572 256.85198095 212.74189997 256.6875 255.9375 C256.68534485 256.95540619 256.6831897 257.97331238 256.68096924 259.02206421 C256.63129854 273.63113523 256.38040191 287.96325853 253.375 302.3125 C253.07698486 303.77478027 253.07698486 303.77478027 252.77294922 305.26660156 C242.65232806 353.6484774 220.7358123 397.63678269 186.375 433.3125 C185.74287598 433.97185547 185.11075195 434.63121094 184.45947266 435.31054688 C175.31502521 444.79880305 166.01765991 453.5387044 155.375 461.3125 C154.22394983 462.17056152 153.07290823 463.02863451 151.921875 463.88671875 C143.73224019 469.92427396 135.22961724 475.30707302 126.375 480.3125 C125.66778809 480.7146875 124.96057617 481.116875 124.23193359 481.53125 C101.09654164 494.5566741 75.92537591 503.30551461 49.9375 508.625 C49.21860596 508.77235596 48.49971191 508.91971191 47.7590332 509.0715332 C33.08339502 511.86090125 18.55831162 512.66142619 3.64770508 512.62817383 C0.70811513 512.6250221 -2.2304558 512.64854926 -5.16992188 512.67382812 C-18.54306192 512.71848737 -31.43916711 511.51301542 -44.625 509.3125 C-46.33055054 509.03031616 -46.33055054 509.03031616 -48.07055664 508.74243164 C-91.33802759 500.97044532 -132.38793216 480.98345309 -165.625 452.3125 C-166.37007813 451.67828125 -167.11515625 451.0440625 -167.8828125 450.390625 C-181.38779833 438.57948485 -194.05918743 425.82889772 -204.625 411.3125 C-205.48149066 410.16255169 -206.33826433 409.01281411 -207.1953125 407.86328125 C-213.23534209 399.67315742 -218.61867614 391.16870382 -223.625 382.3125 C-224.0271875 381.60528809 -224.429375 380.89807617 -224.84375 380.16943359 C-237.8691741 357.03404164 -246.61801461 331.86287591 -251.9375 305.875 C-252.08485596 305.15610596 -252.23221191 304.43721191 -252.3840332 303.6965332 C-255.35789088 288.05024391 -255.99800362 272.57681954 -255.9375 256.6875 C-255.93534485 255.66959381 -255.9331897 254.65168762 -255.93096924 253.60293579 C-255.88129854 238.99386477 -255.63040191 224.66174147 -252.625 210.3125 C-252.42632324 209.33764648 -252.22764648 208.36279297 -252.02294922 207.35839844 C-241.90232806 158.9765226 -219.9858123 114.98821731 -185.625 79.3125 C-184.99287598 78.65314453 -184.36075195 77.99378906 -183.70947266 77.31445312 C-174.56502521 67.82619695 -165.26765991 59.0862956 -154.625 51.3125 C-153.47394983 50.45443848 -152.32290823 49.59636549 -151.171875 48.73828125 C-142.98224019 42.70072604 -134.47961724 37.31792698 -125.625 32.3125 C-124.91778809 31.9103125 -124.21057617 31.508125 -123.48193359 31.09375 C-100.34654164 18.0683259 -75.17537591 9.31948539 -49.1875 4 C-48.46860596 3.85264404 -47.74971191 3.70528809 -47.0090332 3.5534668 C-31.36274391 0.57960912 -15.88931954 -0.06050362 0 0 Z " fill="#48CAFA" transform="translate(255.625,-0.3125)"/>
<path d="M0 0 C10.23 0 20.46 0 31 0 C31 7.92 31 15.84 31 24 C34.39732422 23.39091797 34.39732422 23.39091797 37.86328125 22.76953125 C50.02994358 21.11052244 62.79075117 19.83257131 73.1875 27.43505859 C84.35261943 36.61850606 93.90558569 47.80853556 103 59 C103.12973709 58.31705368 103.25947418 57.63410736 103.3931427 56.9304657 C103.65450264 55.58369499 103.65450264 55.58369499 103.92114258 54.2097168 C104.09212967 53.32052048 104.26311676 52.43132416 104.43928528 51.5151825 C106.30931213 43.12685484 111.07765273 35.12960327 118 30 C128.58603736 23.46724202 137.69167767 21.76383949 150 23 C160.01245644 25.5139501 166.92940569 30.70678935 172.57992554 39.14317322 C174.04728319 41.06182542 175.54656562 42.42201593 177.40869141 43.95532227 C182.71022654 48.50878205 187.50480162 53.53541461 192.35557175 58.55549431 C195.24183087 61.53517277 198.14976658 64.49361018 201.0546875 67.45507812 C204.7309381 71.20342468 208.3999309 74.9579276 212.04101562 78.74047852 C215.0044924 81.81792681 217.9920132 84.8701042 220.99708939 87.90692329 C222.13116132 89.06188699 223.25628672 90.22571039 224.37183762 91.39857292 C230.17979256 97.85059313 230.17979256 97.85059313 237.69302368 101.71914673 C240.24395616 101.7502181 242.49754064 101.47522261 245 101 C246.40612714 100.89482544 247.81328927 100.80249893 249.22119141 100.72460938 C250.59836757 100.60191209 251.9751622 100.47486449 253.3515625 100.34375 C254.46717056 100.2438678 254.46717056 100.2438678 255.60531616 100.14196777 C257.94561341 99.93216603 260.2853329 99.71670767 262.625 99.5 C264.97183143 99.28361517 267.31875069 99.06864932 269.66610718 98.85803223 C271.1156582 98.72791681 272.56492815 98.59461145 274.01382446 98.45739746 C278.70077293 98.03587954 283.3003235 97.94484102 288 98 C290.36315837 120.60074834 292.63520576 143.20464478 294.63232422 165.84082031 C294.95483099 169.49560676 295.28152878 173.15000778 295.60917664 176.80433655 C295.883091 179.86144351 296.15570202 182.91866569 296.427948 185.97592163 C296.55649771 187.41867667 296.68532969 188.86140659 296.81448364 190.30410767 C297.63912054 199.53037474 298.37169839 208.75820546 299 218 C294.60410576 218.45244602 290.20757434 218.89786198 285.81030273 219.33666992 C284.31336071 219.48706325 282.81661295 219.63940311 281.32006836 219.79370117 C279.17349116 220.0146828 277.02632101 220.2287387 274.87890625 220.44140625 C273.5854126 220.57232666 272.29191895 220.70324707 270.95922852 220.83813477 C269.98268311 220.89155029 269.0061377 220.94496582 268 221 C266.2329416 219.2329416 266.57522594 216.64841344 266.3515625 214.24267578 C266.23474121 213.01114777 266.11791992 211.77961975 265.99755859 210.51077271 C265.90652863 209.51733038 265.90652863 209.51733038 265.81365967 208.50381851 C265.62412906 206.43580953 265.42923289 204.36836935 265.23291016 202.30099487 C264.81694398 197.90945844 264.40828145 193.51725642 264 189.125 C263.52680601 184.04329594 263.05065057 178.96189036 262.56903076 173.88097763 C262.37716379 171.84329259 262.18969024 169.80523423 262.00244141 167.76712036 C261.82720947 165.91037186 261.82720947 165.91037186 261.6484375 164.01611328 C261.54708496 162.92436798 261.44573242 161.83262268 261.34130859 160.70779419 C261.07793158 157.90861883 261.07793158 157.90861883 260 155 C259.30777344 155.7528125 258.61554688 156.505625 257.90234375 157.28125 C250.29141353 165.54790741 242.62045357 173.75673649 234.92773438 181.94726562 C231.76272079 185.31750805 228.59992144 188.68982538 225.4375 192.0625 C224.81641357 192.72483643 224.19532715 193.38717285 223.55541992 194.06958008 C218.78570412 199.1578161 214.02606245 204.25538149 209.26928711 209.35571289 C204.39039916 214.5854915 199.49883568 219.80330299 194.60546875 225.01953125 C189.82198082 230.11993764 185.0486518 235.22972252 180.28051758 240.34448242 C177.22844829 243.61711056 174.17100099 246.88450675 171.10546875 250.14453125 C170.45626465 250.83554932 169.80706055 251.52656738 169.13818359 252.23852539 C167.85261116 253.60535115 166.56521741 254.97046648 165.27587891 256.33374023 C162.52202882 259.25584481 159.80647288 262.18472788 157.23046875 265.265625 C156.45316406 266.18859375 155.67585937 267.1115625 154.875 268.0625 C154.23304688 268.85785156 153.59109375 269.65320313 152.9296875 270.47265625 C151 272 151 272 148.79467773 271.80541992 C145.36325246 270.81649077 142.50278228 269.33182309 139.35546875 267.640625 C138.71721161 267.29988953 138.07895447 266.95915405 137.4213562 266.60809326 C135.34001558 265.49492258 133.26377323 264.37258959 131.1875 263.25 C129.74239058 262.47472995 128.29699398 261.69999498 126.85131836 260.92578125 C122.56264525 258.62622847 118.28054648 256.31463702 114 254 C112.80827004 253.35611645 111.61653837 252.71223604 110.42480469 252.06835938 C108.29463302 250.91660635 106.16488909 249.76406176 104.03564453 248.6105957 C102.07382837 247.54785131 100.11127791 246.48646118 98.14794922 245.42651367 C93.71689317 243.03144156 89.3032626 240.61380834 84.921875 238.12890625 C84.13804443 237.69255859 83.35421387 237.25621094 82.54663086 236.80664062 C81.10943712 236.00629757 79.67976783 235.19220831 78.26000977 234.36132812 C75.54535075 232.86580224 73.69126362 231.89442115 70.5703125 232.37109375 C66.69261097 234.8285429 63.13973445 237.62763002 59.5625 240.5 C54.14146128 244.78576836 48.71450847 249.02241165 43.0625 253 C35.10828168 258.60463603 27.29277824 264.39230023 19.46875 270.17675781 C17.02310998 271.98293262 14.57461363 273.78515642 12.125 275.5859375 C4.72617172 281.02596622 -2.66089607 286.47958156 -10 292 C-20.64083366 300.00395456 -31.38023957 307.87428795 -42.11328125 315.75390625 C-42.95270264 316.37088379 -43.79212402 316.98786133 -44.65698242 317.62353516 C-46.24358173 318.7896676 -47.83092316 319.95479136 -49.41918945 321.11865234 C-54.08053239 324.54564165 -58.64443737 328.06681505 -63.14794922 331.69946289 C-65 333 -65 333 -67 333 C-67.24833166 327.16535211 -67.42915883 321.33381392 -67.54931641 315.49511719 C-67.59942399 313.51215004 -67.66753548 311.52954907 -67.75439453 309.54785156 C-68.45491016 293.14754457 -68.45491016 293.14754457 -65.02612305 288.08642578 C-62.45546012 286.01258458 -59.93164809 284.5104338 -57 283 C-55.56717486 281.97981835 -54.15046404 280.93647924 -52.75390625 279.8671875 C-51.3584399 278.8674578 -49.96125815 277.87011881 -48.5625 276.875 C-46.98902303 275.74687484 -45.41612541 274.61794126 -43.84375 273.48828125 C-43.04453125 272.91416504 -42.2453125 272.34004883 -41.421875 271.74853516 C-35.04987377 267.14810443 -28.74242422 262.45878591 -22.421875 257.78808594 C-19.12181518 255.35163048 -15.81722266 252.92135779 -12.51269531 250.4909668 C-9.3814539 248.18621587 -6.25434307 245.87589081 -3.12695312 243.56591797 C-1.13662139 242.10058421 0.86024461 240.64470078 2.859375 239.19140625 C3.96886423 238.3777599 5.07824818 237.56396997 6.1875 236.75 C7.12980469 236.06421875 8.07210937 235.3784375 9.04296875 234.671875 C9.68878906 234.12015625 10.33460938 233.5684375 11 233 C11.23364791 230.80445024 11.23364791 230.80445024 9.17773438 229.14582825 C8.32501953 228.39105698 7.47230469 227.63628571 6.59375 226.85864258 C5.63275391 225.99785599 4.67175781 225.1370694 3.68164062 224.25019836 C3.1631958 223.78703028 2.64475098 223.32386219 2.1105957 222.84665871 C-1.22945373 219.83524034 -4.49741991 216.74541655 -7.77526855 213.666646 C-10.64477553 210.97947008 -13.53444886 208.32656126 -16.4921875 205.73657227 C-37.4213894 187.34389764 -37.4213894 187.34389764 -38.5 174.47021484 C-38.86596354 166.7470379 -37.8502284 159.87125514 -37 152 C-24.79 152 -12.58 152 0 152 C0 140.78 0 129.56 0 118 C-2.97 117.67 -5.94 117.34 -9 117 C-21.51314595 112.54755307 -30.96274084 104.86044865 -37 92.9375 C-42.30529598 81.34074715 -44.21629977 69.30037906 -40.4375 56.8125 C-35.10499955 42.81002503 -26.4644787 33.93173514 -13.28515625 27.12890625 C-10 26 -10 26 0 25 C0 16.75 0 8.5 0 0 Z " fill="#47C6F4" transform="translate(146,71)"/>
<path d="M0 0 C2.36315837 22.60074834 4.63520576 45.20464478 6.63232422 67.84082031 C6.95483099 71.49560676 7.28152878 75.15000778 7.60917664 78.80433655 C7.883091 81.86144351 8.15570202 84.91866569 8.427948 87.97592163 C8.55649771 89.41867667 8.68532969 90.86140659 8.81448364 92.30410767 C9.63912054 101.53037474 10.37169839 110.75820546 11 120 C6.60410576 120.45244602 2.20757434 120.89786198 -2.18969727 121.33666992 C-3.68663929 121.48706325 -5.18338705 121.63940311 -6.67993164 121.79370117 C-8.82650884 122.0146828 -10.97367899 122.2287387 -13.12109375 122.44140625 C-14.4145874 122.57232666 -15.70808105 122.70324707 -17.04077148 122.83813477 C-18.01731689 122.89155029 -18.9938623 122.94496582 -20 123 C-21.7670584 121.2329416 -21.42477406 118.64841344 -21.6484375 116.24267578 C-21.76525879 115.01114777 -21.88208008 113.77961975 -22.00244141 112.51077271 C-22.06312805 111.84847782 -22.1238147 111.18618294 -22.18634033 110.50381851 C-22.37587094 108.43580953 -22.57076711 106.36836935 -22.76708984 104.30099487 C-23.18305602 99.90945844 -23.59171855 95.51725642 -24 91.125 C-24.47319399 86.04329594 -24.94934943 80.96189036 -25.43096924 75.88097763 C-25.62283621 73.84329259 -25.81030976 71.80523423 -25.99755859 69.76712036 C-26.17279053 67.91037186 -26.17279053 67.91037186 -26.3515625 66.01611328 C-26.45291504 64.92436798 -26.55426758 63.83262268 -26.65869141 62.70779419 C-26.92206842 59.90861883 -26.92206842 59.90861883 -28 57 C-28.69222656 57.7528125 -29.38445312 58.505625 -30.09765625 59.28125 C-37.70858647 67.54790741 -45.37954643 75.75673649 -53.07226562 83.94726562 C-56.23727921 87.31750805 -59.40007856 90.68982538 -62.5625 94.0625 C-63.18358643 94.72483643 -63.80467285 95.38717285 -64.44458008 96.06958008 C-69.21429588 101.1578161 -73.97393755 106.25538149 -78.73071289 111.35571289 C-83.60960084 116.5854915 -88.50116432 121.80330299 -93.39453125 127.01953125 C-98.17801918 132.11993764 -102.9513482 137.22972252 -107.71948242 142.34448242 C-110.77155171 145.61711056 -113.82899901 148.88450675 -116.89453125 152.14453125 C-117.54373535 152.83554932 -118.19293945 153.52656738 -118.86181641 154.23852539 C-120.14738884 155.60535115 -121.43478259 156.97046648 -122.72412109 158.33374023 C-125.47797118 161.25584481 -128.19352712 164.18472788 -130.76953125 167.265625 C-131.54683594 168.18859375 -132.32414063 169.1115625 -133.125 170.0625 C-133.76695312 170.85785156 -134.40890625 171.65320313 -135.0703125 172.47265625 C-137 174 -137 174 -139.20532227 173.80541992 C-142.63674754 172.81649077 -145.49721772 171.33182309 -148.64453125 169.640625 C-149.28278839 169.29988953 -149.92104553 168.95915405 -150.5786438 168.60809326 C-152.65998442 167.49492258 -154.73622677 166.37258959 -156.8125 165.25 C-158.25760942 164.47472995 -159.70300602 163.69999498 -161.14868164 162.92578125 C-165.43735475 160.62622847 -169.71945352 158.31463702 -174 156 C-175.19172996 155.35611645 -176.38346163 154.71223604 -177.57519531 154.06835938 C-179.70536698 152.91660635 -181.83511091 151.76406176 -183.96435547 150.6105957 C-185.92617163 149.54785131 -187.88872209 148.48646118 -189.85205078 147.42651367 C-194.28310683 145.03144156 -198.6967374 142.61380834 -203.078125 140.12890625 C-203.86195557 139.69255859 -204.64578613 139.25621094 -205.45336914 138.80664062 C-206.89056288 138.00629757 -208.32023217 137.19220831 -209.73999023 136.36132812 C-212.45464925 134.86580224 -214.30873638 133.89442115 -217.4296875 134.37109375 C-221.30738903 136.8285429 -224.86026555 139.62763002 -228.4375 142.5 C-233.85853872 146.78576836 -239.28549153 151.02241165 -244.9375 155 C-252.89171832 160.60463603 -260.70722176 166.39230023 -268.53125 172.17675781 C-270.97689002 173.98293262 -273.42538637 175.78515642 -275.875 177.5859375 C-283.27382828 183.02596622 -290.66089607 188.47958156 -298 194 C-308.64083366 202.00395456 -319.38023957 209.87428795 -330.11328125 217.75390625 C-331.37241333 218.67937256 -331.37241333 218.67937256 -332.65698242 219.62353516 C-334.24358173 220.7896676 -335.83092316 221.95479136 -337.41918945 223.11865234 C-342.08053239 226.54564165 -346.64443737 230.06681505 -351.14794922 233.69946289 C-353 235 -353 235 -355 235 C-355.24833166 229.16535211 -355.42915883 223.33381392 -355.54931641 217.49511719 C-355.59942399 215.51215004 -355.66753548 213.52954907 -355.75439453 211.54785156 C-356.45491016 195.14754457 -356.45491016 195.14754457 -353.02612305 190.08642578 C-350.45546012 188.01258458 -347.93164809 186.5104338 -345 185 C-343.56717486 183.97981835 -342.15046404 182.93647924 -340.75390625 181.8671875 C-339.3584399 180.8674578 -337.96125815 179.87011881 -336.5625 178.875 C-334.98902303 177.74687484 -333.41612541 176.61794126 -331.84375 175.48828125 C-331.04453125 174.91416504 -330.2453125 174.34004883 -329.421875 173.74853516 C-325.44887879 170.88012802 -321.50474963 167.97295398 -317.5625 165.0625 C-316.77633301 164.48234131 -315.99016602 163.90218262 -315.18017578 163.30444336 C-312.78626481 161.53699694 -310.39301208 159.76866323 -308 158 C-297.95905114 150.57878505 -287.89933596 143.18828194 -277.76708984 135.89208984 C-269.94311282 130.2513896 -262.18350948 124.52443898 -254.42626953 118.79248047 C-251.93992732 116.95561948 -249.45260708 115.12009203 -246.96484375 113.28515625 C-246.13936035 112.67599365 -245.31387695 112.06683105 -244.46337891 111.43920898 C-242.84133617 110.24462033 -241.21735806 109.05265441 -239.59130859 107.86352539 C-236.20663732 105.38605991 -232.84356778 102.90187241 -229.57421875 100.2734375 C-228.62160156 99.52320313 -227.66898437 98.77296875 -226.6875 98 C-225.51767578 97.0409375 -225.51767578 97.0409375 -224.32421875 96.0625 C-222 95 -222 95 -219.27832031 95.71533203 C-215.78641737 97.08369614 -212.51269365 98.7066858 -209.22265625 100.4921875 C-208.5829892 100.83428757 -207.94332214 101.17638763 -207.28427124 101.52885437 C-205.20811765 102.640132 -203.13537521 103.75762121 -201.0625 104.875 C-198.8953374 106.03645713 -196.72723912 107.1961533 -194.55903625 108.35566711 C-193.10815856 109.13160962 -191.65754602 109.90804815 -190.2071991 110.6849823 C-183.05219077 114.51552789 -175.86175206 118.27671397 -168.65136719 122.00195312 C-164.53037308 124.13542142 -160.43698782 126.2957445 -156.3984375 128.58203125 C-155.70049072 128.97253662 -155.00254395 129.36304199 -154.28344727 129.76538086 C-152.46951013 130.78660522 -150.66586655 131.82605669 -148.86328125 132.8671875 C-146.15373988 134.30766876 -146.15373988 134.30766876 -144.01757812 133.26660156 C-141.94784645 131.96725888 -140.50458458 130.66447723 -138.85546875 128.8671875 C-138.26886475 128.23417725 -137.68226074 127.60116699 -137.07788086 126.94897461 C-136.45405518 126.26456299 -135.83022949 125.58015137 -135.1875 124.875 C-133.83870036 123.41521794 -132.48973748 121.9555867 -131.140625 120.49609375 C-130.10905273 119.37436768 -130.10905273 119.37436768 -129.05664062 118.22998047 C-125.87287724 114.77787995 -122.65428974 111.35879138 -119.4375 107.9375 C-114.61736449 102.79877613 -109.80563721 97.65228221 -105 92.5 C-98.30955173 85.32694966 -91.60207242 78.16997151 -84.89111328 71.01611328 C-81.76003342 67.67807332 -78.63007012 64.33898676 -75.5 61 C-74.26953668 59.68749491 -73.0390679 58.37499493 -71.80859375 57.0625 C-71.19226074 56.40507812 -70.57592773 55.74765625 -69.94091797 55.0703125 C-64.29394531 49.046875 -58.64697266 43.0234375 -53 37 C-64.17550573 37.8503766 -75.34707585 38.73062986 -86.50390625 39.80078125 C-87.21602264 39.86890518 -87.92813904 39.93702911 -88.66183472 40.00721741 C-92.16967849 40.34387544 -95.67691313 40.68586506 -99.18359375 41.03442383 C-105.48544324 41.64566235 -111.66773112 42.17746486 -118 42 C-118.4292883 38.06752125 -118.85647992 34.13482094 -119.28173828 30.2019043 C-119.49791447 28.20674802 -119.71574607 26.21177134 -119.93359375 24.21679688 C-120.06894531 22.96318359 -120.20429688 21.70957031 -120.34375 20.41796875 C-120.46943359 19.26063232 -120.59511719 18.1032959 -120.72460938 16.91088867 C-121 14 -121 14 -121 11 C-109.75795941 9.49579026 -98.51182534 8.35463698 -87.21392822 7.36782837 C-69.7468937 5.84014922 -52.30049528 4.15982281 -34.86499023 2.30712891 C-23.25424759 1.07989725 -11.68755311 -0.07846655 0 0 Z " fill="#E7ECF5" transform="translate(434,169)"/>
<path d="M0 0 C10.23 0 20.46 0 31 0 C31 7.92 31 15.84 31 24 C43.21 24 55.42 24 68 24 C68 33.9 68 43.8 68 54 C55.46 54 42.92 54 30 54 C30 65.55 30 77.1 30 89 C32.97 89.33 35.94 89.66 39 90 C50.64073457 93.50299883 60.54898509 101.59809051 66.76171875 111.9296875 C73.15888123 124.10443256 75.07280216 135.98529851 70.96484375 149.3125 C66.53487322 161.65185111 58.7922793 171.85418669 47 178 C41.45600323 180.44363494 37.11189954 182 31 182 C31 189.92 31 197.84 31 206 C20.77 206 10.54 206 0 206 C0 198.41 0 190.82 0 183 C-12.21 183 -24.42 183 -37 183 C-37 172.77 -37 162.54 -37 152 C-24.79 152 -12.58 152 0 152 C0 140.78 0 129.56 0 118 C-2.97 117.67 -5.94 117.34 -9 117 C-21.51314595 112.54755307 -30.96274084 104.86044865 -37 92.9375 C-42.30529598 81.34074715 -44.21629977 69.30037906 -40.4375 56.8125 C-35.10499955 42.81002503 -26.4644787 33.93173514 -13.28515625 27.12890625 C-10 26 -10 26 0 25 C0 16.75 0 8.5 0 0 Z " fill="#F2DC7E" transform="translate(146,71)"/>
<path d="M0 0 C12.92200854 7.93248954 20.17397796 17.56539443 25.375 31.75 C28.09966753 45.40171962 25.90190023 58.89812158 18.75 70.8125 C9.84600035 83.81876701 -1.48546502 91.04009944 -17 94 C-31.31048581 95.54282465 -43.62019744 91.69488039 -55 83 C-65.74003311 74.03132652 -72.02414323 62.01746843 -73.3828125 48.0703125 C-74.03640355 33.37071327 -69.71124785 20.45965318 -59.74609375 9.52734375 C-44.04702735 -5.5669432 -19.56000789 -11.03590609 0 0 Z " fill="#FFA016" transform="translate(243,346)"/>
<path d="M0 0 C10.23 0 20.46 0 31 0 C31 7.92 31 15.84 31 24 C30.67 24 30.34 24 30 24 C30 16.41 30 8.82 30 1 C25.05 1 20.1 1 15 1 C15 68.65 15 136.3 15 206 C10.05 206 5.1 206 0 206 C0 198.41 0 190.82 0 183 C-12.21 183 -24.42 183 -37 183 C-37 172.77 -37 162.54 -37 152 C-24.79 152 -12.58 152 0 152 C0 140.78 0 129.56 0 118 C-2.97 117.67 -5.94 117.34 -9 117 C-21.51314595 112.54755307 -30.96274084 104.86044865 -37 92.9375 C-42.30529598 81.34074715 -44.21629977 69.30037906 -40.4375 56.8125 C-35.10499955 42.81002503 -26.4644787 33.93173514 -13.28515625 27.12890625 C-10 26 -10 26 0 25 C0 16.75 0 8.5 0 0 Z " fill="#FBEA98" transform="translate(146,71)"/>
<path d="M0 0 C3.70473735 1.45505258 7.18952451 3.19641892 10.69067383 5.07568359 C11.72200439 5.62320786 11.72200439 5.62320786 12.77416992 6.18179321 C14.22083129 6.95116336 15.66628917 7.72280029 17.1105957 8.49658203 C19.30606429 9.67210086 21.5058234 10.83925677 23.70629883 12.00537109 C25.11802039 12.75748138 26.52948732 13.51006986 27.94067383 14.26318359 C28.59084473 14.60811859 29.24101562 14.95305359 29.91088867 15.30844116 C31.1409925 15.96940647 32.36465875 16.64253293 33.58065796 17.32910156 C35.27851028 18.28140162 37.0092613 19.1742758 38.73999023 20.06542969 C41.31567383 22.30224609 41.31567383 22.30224609 41.99682617 25.87744141 C41.99588171 27.29543956 41.96228644 28.71367135 41.90161133 30.13037109 C41.89312164 30.87937683 41.88463196 31.62838257 41.87588501 32.40008545 C41.84237313 34.78562078 41.76711269 37.16773821 41.69067383 39.55224609 C41.6605707 41.17198883 41.63319547 42.79178472 41.60864258 44.41162109 C41.54259106 48.37647385 41.43909696 52.33878118 41.31567383 56.30224609 C36.65577187 55.71586025 33.02451261 53.69327528 29.00317383 51.41552734 C27.5842706 50.63426039 26.16498811 49.8536819 24.74536133 49.07373047 C22.52247643 47.84336318 20.3031047 46.60765769 18.09008789 45.35961914 C15.94469968 44.15361059 13.78785026 42.97070771 11.62817383 41.79052734 C10.96970459 41.41148758 10.31123535 41.03244781 9.6328125 40.641922 C6.6686293 39.04014103 4.95918768 38.15975167 1.60449219 38.90258789 C-0.58781078 40.243225 -2.61348815 41.60070368 -4.61791992 43.20849609 C-5.70351196 44.06894531 -5.70351196 44.06894531 -6.81103516 44.94677734 C-7.57359619 45.55908203 -8.33615723 46.17138672 -9.12182617 46.80224609 C-14.5428649 51.08801446 -19.9698177 55.32465774 -25.62182617 59.30224609 C-33.5760445 64.90688212 -41.39154794 70.69454632 -49.21557617 76.47900391 C-51.66121619 78.28517872 -54.10971254 80.08740251 -56.55932617 81.88818359 C-63.95815445 87.32821231 -71.34522225 92.78182766 -78.68432617 98.30224609 C-89.32515984 106.30620066 -100.06456574 114.17653405 -110.79760742 122.05615234 C-112.0567395 122.98161865 -112.0567395 122.98161865 -113.34130859 123.92578125 C-114.9279079 125.09191369 -116.51524933 126.25703745 -118.10351562 127.42089844 C-122.76485857 130.84788774 -127.32876355 134.36906114 -131.83227539 138.00170898 C-133.68432617 139.30224609 -133.68432617 139.30224609 -135.68432617 139.30224609 C-135.93265783 133.46759821 -136.11348501 127.63606002 -136.23364258 121.79736328 C-136.28375016 119.81439613 -136.35186165 117.83179516 -136.4387207 115.85009766 C-137.13923633 99.44979066 -137.13923633 99.44979066 -133.71044922 94.38867188 C-131.13978629 92.31483067 -128.61597426 90.81267989 -125.68432617 89.30224609 C-124.25150104 88.28206444 -122.83479021 87.23872533 -121.43823242 86.16943359 C-120.04276607 85.16970389 -118.64558433 84.1723649 -117.24682617 83.17724609 C-115.6733492 82.04912093 -114.10045158 80.92018735 -112.52807617 79.79052734 C-111.72885742 79.21641113 -110.92963867 78.64229492 -110.10620117 78.05078125 C-106.13320497 75.18237411 -102.18907581 72.27520008 -98.24682617 69.36474609 C-97.46065918 68.7845874 -96.67449219 68.20442871 -95.86450195 67.60668945 C-93.47059098 65.83924303 -91.07733826 64.07090933 -88.68432617 62.30224609 C-78.64337731 54.88103114 -68.58366213 47.49052803 -58.45141602 40.19433594 C-50.62743899 34.55363569 -42.86783565 28.82668507 -35.1105957 23.09472656 C-32.62425349 21.25786557 -30.13693326 19.42233812 -27.64916992 17.58740234 C-26.82368652 16.97823975 -25.99820313 16.36907715 -25.14770508 15.74145508 C-23.52566234 14.54686642 -21.90168423 13.3549005 -20.27563477 12.16577148 C-16.8909635 9.68830601 -13.52789395 7.20411851 -10.25854492 4.57568359 C-9.30592773 3.82544922 -8.35331055 3.07521484 -7.37182617 2.30224609 C-6.20200195 1.34318359 -6.20200195 1.34318359 -5.00854492 0.36474609 C-2.68432617 -0.69775391 -2.68432617 -0.69775391 0 0 Z " fill="#FDFEFE" transform="translate(214.684326171875,264.69775390625)"/>
<path d="M0 0 C8.85753269 6.34920485 15.1548804 14.60330862 17.375 25.375 C18.38594204 35.30211936 16.45993246 45.50775933 10.625 53.75 C2.87583836 62.93275654 -5.80609441 68.35289549 -17.9140625 69.61328125 C-29.17514232 69.97107476 -39.07231507 65.31570297 -47.33984375 57.8203125 C-55.02421443 49.64711417 -57.3014012 40.80501957 -57.07592773 29.87011719 C-56.56885546 18.5203293 -52.7072947 11.39789729 -44.625 3.39453125 C-31.87320797 -7.59920121 -14.18137302 -8.75693703 0 0 Z " fill="#FEA016" transform="translate(385.625,332.625)"/>
<path d="M0 0 C9.1878116 5.44892297 15.74361365 14.0268228 18.4765625 24.46875 C19.612902 36.35844959 18.67550078 46.30889689 11.45703125 56.25 C5.24183981 63.65162903 -1.91181251 68.67675212 -11.5234375 70.46875 C-22.82523832 71.36775688 -32.40502602 69.36365622 -41.5234375 62.46875 C-49.56767018 55.1558112 -54.84187664 47.26775355 -55.796875 36.33984375 C-56.13092434 25.0464066 -53.66357363 16.83278269 -46.3984375 8.09375 C-34.32229836 -4.48893861 -15.6625285 -7.76654306 0 0 Z " fill="#FFA016" transform="translate(305.5234375,97.53125)"/>
<path d="M0 0 C13.86994838 -0.92466323 24.55453462 4.02997756 35 13 C44.48682871 21.75566657 49.80848489 33.80351171 50.33227539 46.59985352 C50.64114088 61.6919036 45.5451401 74.26435056 35.1875 85.3125 C26.84768986 93.15417119 16.92431147 98.13870009 5.375 98.1875 C3.93125 98.125625 2.4875 98.06375 1 98 C1 92.39 1 86.78 1 81 C2.77375 80.649375 4.5475 80.29875 6.375 79.9375 C16.00041206 77.49709482 22.55591503 72.68612298 27.84375 64.30859375 C31.67813949 56.65276878 32.29899914 48.54602629 30.34765625 40.21484375 C27.38520964 31.98865081 21.8867959 25.39041594 14.33203125 20.96484375 C9.72337904 19.05808145 4.92456538 18.61557067 0 18 C0 12.06 0 6.12 0 0 Z " fill="#FDAA02" transform="translate(219,341)"/>
<path d="M0 0 C0 5.94 0 11.88 0 18 C-1.485 18.2475 -2.97 18.495 -4.5 18.75 C-12.07561163 20.27155142 -19.62234409 23.42445449 -24.34375 29.8203125 C-30.0571458 38.55649329 -31.40507614 47.2543702 -29.53515625 57.5625 C-27.07366868 65.95194875 -21.9464689 72.13091182 -14.58984375 76.74609375 C-9.90999546 79.01190265 -5.07709772 79.94956599 0 81 C0 86.61 0 92.22 0 98 C2.31 98 4.62 98 7 98 C7 98.33 7 98.66 7 99 C-8.77427284 99.85138504 -21.05237722 96.30695583 -33.25 86.12109375 C-43.13301953 76.85576294 -48.86929175 64.61965867 -49.47290039 51.04418945 C-49.65851658 37.04270889 -45.20121255 24.90011706 -35.74609375 14.52734375 C-25.61560726 4.78711678 -13.96401797 -0.37740589 0 0 Z " fill="#FCC514" transform="translate(219,341)"/>
<path d="M0 0 C0.13217075 7.77289382 0.26266159 15.54581401 0.39115143 23.31876945 C0.45089841 26.93013743 0.51117115 30.54149486 0.57275391 34.15283203 C1.09501517 64.82132716 1.09501517 64.82132716 1 80 C0.67 80 0.34 80 0 80 C0 74.39 0 68.78 0 63 C-1.32 62.9175 -2.64 62.835 -4 62.75 C-12.57598171 61.75685032 -19.22215286 57.30871771 -25 51 C-30.9027105 42.48197965 -31.8757824 34.24178863 -31 24 C-30.08742069 20.69685966 -28.75271787 17.93464934 -27 15 C-26.649375 14.37480469 -26.29875 13.74960937 -25.9375 13.10546875 C-20.04675209 3.71708927 -10.61433492 -0.14411355 0 0 Z " fill="#FFB114" transform="translate(219,359)"/>
<path d="M0 0 C9.83361378 -0.6344267 16.69161109 1.72246666 24.25 8.125 C32.10317819 15.63244078 36.86910058 24.16911566 37.375 35.125 C37.12150305 46.64326767 33.00704122 55.70814217 25.1875 63.8984375 C18.90753878 69.89985206 12.135827 73.21287785 3.375 73.25 C1.93125 73.1675 0.4875 73.085 -1 73 C-1 68.71 -1 64.42 -1 60 C0.835625 59.62875 2.67125 59.2575 4.5625 58.875 C11.98351873 56.99570786 16.44563865 53.98470513 20.4375 47.4375 C23.16304812 41.29026809 23.10436751 34.01885218 21.33984375 27.59765625 C19.13002743 22.61361164 15.66516257 18.80611282 11 16 C8.36684617 15.00282932 5.77021688 14.22369454 3.0390625 13.54296875 C1 13 1 13 0 12 C-0.07244053 9.98035801 -0.08377188 7.95832876 -0.0625 5.9375 C-0.05347656 4.83277344 -0.04445313 3.72804688 -0.03515625 2.58984375 C-0.02355469 1.73519531 -0.01195312 0.88054687 0 0 Z " fill="#FDAA02" transform="translate(366,328)"/>
<path d="M0 0 C2.1346875 0.0309375 2.1346875 0.0309375 4.3125 0.0625 C4.3125 4.3525 4.3125 8.6425 4.3125 13.0625 C2.78625 13.475 1.26 13.8875 -0.3125 14.3125 C-7.69546251 16.54407341 -12.84431844 19.91657634 -16.6328125 26.7734375 C-19.60513519 33.33396956 -19.11885684 39.81503179 -16.84765625 46.5546875 C-13.80945527 52.97707677 -9.12542949 56.28339379 -2.6875 59.0625 C-0.24716752 59.7115246 1.77513597 59.95217982 4.3125 60.0625 C4.3125 64.3525 4.3125 68.6425 4.3125 73.0625 C6.6225 73.0625 8.9325 73.0625 11.3125 73.0625 C11.3125 73.3925 11.3125 73.7225 11.3125 74.0625 C-1.61224399 74.66210153 -11.71991502 72.39666816 -21.4375 63.5625 C-30.13053453 53.90357274 -33.16927362 45.7893053 -33.01953125 32.76171875 C-32.07430593 22.23079666 -26.57848857 13.87634442 -18.6875 7.0625 C-12.81002231 3.20442307 -7.1503876 -0.10362881 0 0 Z " fill="#FCC515" transform="translate(282.6875,93.9375)"/>
<path d="M0 0 C9.21567514 -0.76797293 17.4483314 1.93224944 24.8125 7.625 C32.13988275 14.55727878 37.13630608 23.85005675 37.43188477 33.96264648 C37.46473085 46.61124629 34.36445553 55.56906704 25.41015625 64.8671875 C19.21393517 70.35039124 13.0109932 73.17119728 4.75 73.0625 C3.1825 73.041875 1.615 73.02125 0 73 C0 68.71 0 64.42 0 60 C1.485 59.79375 2.97 59.5875 4.5 59.375 C10.79356161 58.10024177 15.47849645 55.38393085 19.34765625 50.19140625 C22.84914399 44.35559336 23.77135752 38.69581178 23 32 C21.06469176 25.5104066 18.00708664 20.44739246 12.11328125 16.84765625 C7.84820628 14.56482565 5.00337053 13.83389509 0 13 C0 8.71 0 4.42 0 0 Z " fill="#FDAA02" transform="translate(287,94)"/>
<path d="M0 0 C0 4.62 0 9.24 0 14 C-1.175625 14.2475 -2.35125 14.495 -3.5625 14.75 C-10.88229784 16.61228072 -15.66715587 19.81022267 -20 26 C-22.9193268 31.97766915 -23.04069218 39.16244757 -21.3125 45.53515625 C-18.67530377 52.1171585 -15.09908784 55.19219876 -9 58.75 C-5.59848709 60.30087122 -5.59848709 60.30087122 0 61 C0 65.29 0 69.58 0 74 C1.65 74 3.3 74 5 74 C5 74.33 5 74.66 5 75 C-6.47453579 75.89605919 -16.09856391 72.211731 -25 65 C-31.50036063 59.10673456 -35.81465862 51.4174598 -36.4140625 42.60546875 C-36.8003913 31.03726809 -35.62033123 22.23348915 -28 13.13671875 C-20.43067938 5.0499641 -11.33487706 0 0 0 Z " fill="#FCC515" transform="translate(365,327)"/>
<path d="M0 0 C0 15.51 0 31.02 0 47 C-8.15221306 47 -12.90562535 45.08485285 -18.6796875 39.32421875 C-22.83485146 33.97659649 -24.33637356 28.2129853 -23.875 21.5 C-22.77027891 14.20633007 -19.72898408 8.82790249 -13.93359375 4.25390625 C-9.51774508 1.39029529 -5.30924316 0 0 0 Z " fill="#FFB114" transform="translate(287,107)"/>
<path d="M0 0 C0 15.51 0 31.02 0 47 C-7.2551406 47 -11.49816084 45.19700815 -16.83984375 40.3203125 C-22.22509588 34.39521847 -23.49790497 28.71977589 -23.3046875 20.80859375 C-22.58161223 14.143323 -19.97337655 9.56491045 -15.0625 5.0625 C-9.78778934 0.85053141 -6.93276188 0 0 0 Z " fill="#FFB114" transform="translate(365,341)"/>
<path d="M0 0 C0 10.89 0 21.78 0 33 C-5.960317 30.0198415 -8.19855629 28.33267087 -11.25 22.6875 C-12.68964972 17.52875518 -12.86331228 13.07139724 -10.375 8.3125 C-8.11019704 4.78587825 -4.45744948 0 0 0 Z " fill="#4AC6F3" transform="translate(146,126)"/>
<path d="M0 0 C5.66457472 2.26582989 8.23765893 4.47531786 11 10 C11.55713132 15.95701945 11.52180186 20.95208399 8 26 C6.08867821 27.92151551 4.21586759 29.39703196 2 31 C1.34 31 0.68 31 0 31 C0 20.77 0 10.54 0 0 Z " fill="#49C6F3" transform="translate(177,191)"/>
</svg>
