<?xml version="1.0" encoding="UTF-8"?>
<svg version="1.1" xmlns="http://www.w3.org/2000/svg" width="512" height="512">
<path d="M0 0 C1.9017546 -0.01169993 1.9017546 -0.01169993 3.84192848 -0.02363622 C7.32217806 -0.04430634 10.8017329 -0.03428662 14.28198338 -0.01870513 C18.0503186 -0.00731305 21.81854084 -0.02489293 25.58685303 -0.03860474 C32.95360514 -0.06075855 40.32010157 -0.05607122 47.68686342 -0.04154153 C53.6775957 -0.03021819 59.66825666 -0.02873173 65.65899658 -0.03416061 C66.5138438 -0.03492678 67.36869102 -0.03569294 68.2494427 -0.03648233 C69.98641827 -0.03808106 71.72339382 -0.03970213 73.46036935 -0.04134528 C89.72197316 -0.05557976 105.9834357 -0.03924627 122.24501634 -0.01234345 C136.17757508 0.00999325 150.10992548 0.00611247 164.04248047 -0.01693726 C180.2485948 -0.04373602 196.45458552 -0.05420668 212.66071892 -0.03887594 C214.39106113 -0.03728331 216.12140336 -0.03571145 217.85174561 -0.03416061 C218.70295569 -0.03338924 219.55416578 -0.03261786 220.43117011 -0.03182311 C226.40997465 -0.02751832 232.38870035 -0.03476622 238.36749268 -0.04655838 C245.66048158 -0.06062732 252.95320165 -0.05669164 260.24616003 -0.03015466 C263.96235022 -0.01707513 267.67809329 -0.01176262 271.39427948 -0.02840042 C275.43348425 -0.04621 279.47157454 -0.02484967 283.51074219 0 C284.67020166 -0.01115361 285.82966114 -0.02230722 287.02425575 -0.03379881 C299.91037009 0.11926278 311.25046601 4.92949113 320.75537109 13.63491821 C329.5205429 23.49204745 333.9175977 34.01459953 333.88959217 47.15354347 C333.8919444 47.90565505 333.89429663 48.65776662 333.89672014 49.43266946 C333.90339449 51.96116996 333.90295239 54.48961888 333.90254211 57.01812744 C333.9058417 58.84601525 333.90956747 60.67390234 333.91368359 62.5017885 C333.92370074 67.53155487 333.92741992 72.56130931 333.9300729 77.59108424 C333.93397675 83.01321212 333.94355498 88.43533055 333.95228577 93.85745239 C333.97204697 106.95453216 333.98211555 120.05161269 333.99101356 133.14870363 C333.99539666 139.31573351 334.00076338 145.48276252 334.00600243 151.64979172 C334.02301368 172.14881779 334.03750833 192.64784333 334.04475117 213.14687538 C334.04666107 218.46629461 334.04857974 223.78571384 334.05053711 229.10513306 C334.05077726 229.76599043 334.05101741 230.42684781 334.05126484 231.10773116 C334.05891159 251.86600459 334.08058129 272.6242265 334.11206055 293.38247681 C334.14741441 316.70587588 334.16900563 340.02923762 334.17239541 363.35266435 C334.17456109 375.70105282 334.18331842 388.04935989 334.20885658 400.39772415 C334.23055335 410.912962 334.23861896 421.42809866 334.2288898 431.94335635 C334.2243423 437.30773881 334.22625776 442.67191245 334.24565125 448.03626633 C334.26326303 452.95025131 334.26230115 457.86387483 334.24675395 462.77786355 C334.2443749 464.55246504 334.24871685 466.32709143 334.2605826 468.10165484 C334.34584591 481.69884372 333.06058278 492.24790725 323.25927734 502.40444946 C312.81765919 511.7057973 302.3522538 513.5111807 288.86376953 512.83023071 C275.76430885 511.61675589 266.35996788 500.52292018 257.67700195 491.73599243 C256.58420262 490.63770804 255.49093272 489.5398917 254.39723206 488.44250488 C252.05582078 486.09143344 249.71750693 483.73734037 247.38154411 481.38085556 C243.6842271 477.65154987 239.97860677 473.93056876 236.2716217 470.21087646 C227.06941438 460.97468946 217.87663188 451.72913753 208.68865967 442.47879028 C201.53821518 435.27984388 194.38457652 428.08414464 187.22031885 420.89894116 C183.53783382 417.20496297 179.86239083 413.50416313 176.19214809 409.79802299 C173.90545435 407.49208706 171.61247975 405.19247628 169.31773949 402.89455032 C168.25855672 401.83136189 167.20194922 400.76560041 166.14818954 399.69703674 C158.88739208 392.33796625 152.80450996 386.2426026 142.13037109 385.32241821 C130.69462579 385.60965357 123.65226085 392.9183704 116.14624023 400.64224243 C115.02110894 401.77726848 113.89459934 402.91092961 112.76683044 404.04333496 C110.35292196 406.47274696 107.9486671 408.91118226 105.55156136 411.35717392 C101.75401688 415.2315115 97.93383998 419.08300396 94.11021423 422.93157959 C86.68369212 430.41256598 79.27914389 437.91507488 71.87784576 445.42100525 C62.46225663 454.96886352 53.04023956 464.51021597 43.59146398 474.02524579 C39.79928367 477.84561038 36.02000158 481.67814611 32.25050938 485.52089286 C29.89467851 487.91747294 27.52833123 490.30346314 25.15918922 492.6868782 C24.07081264 493.78612618 22.98674457 494.88966135 21.90759659 495.99797058 C11.91593065 506.25144003 2.84301877 512.81499315 -11.74462891 513.00991821 C-22.88136562 513.05577142 -31.48593521 510.14791938 -39.63525391 502.31851196 C-47.07444874 494.53624746 -50.40159787 486.9487357 -50.37884998 476.24492741 C-50.38120221 475.49456887 -50.38355444 474.74421033 -50.38597795 473.97111365 C-50.39266484 471.44253524 -50.39220982 468.91400826 -50.39179993 466.38542175 C-50.39509876 464.55982238 -50.39882437 462.73422373 -50.40294141 460.90862602 C-50.41296757 455.88046153 -50.4166792 450.85230897 -50.41933072 445.8241359 C-50.423232 440.40536054 -50.43281055 434.98659464 -50.44154358 429.56782532 C-50.46131418 416.47476664 -50.4713755 403.38170718 -50.48027137 390.28863731 C-50.48465377 384.12335736 -50.49002075 377.95807827 -50.49526024 371.792799 C-50.51227402 351.29810674 -50.52676785 330.80341501 -50.53400898 310.30871677 C-50.53591889 304.98914654 -50.53783756 299.66957632 -50.53979492 294.3500061 C-50.54015515 293.35868799 -50.54015515 293.35868799 -50.54052265 292.34734325 C-50.54865699 270.26478743 -50.57388061 248.18229216 -50.6073756 226.09976137 C-50.64045016 204.11517959 -50.65845815 182.1306262 -50.66165322 160.1460194 C-50.66381807 147.80202358 -50.67256306 135.45810922 -50.6981144 123.11413765 C-50.71982687 112.60039665 -50.72786911 102.0867569 -50.71814761 91.57299603 C-50.71360439 86.21039793 -50.71549064 80.84800872 -50.73490906 75.4854393 C-50.7525518 70.57069312 -50.75153382 65.65630803 -50.73601177 60.74155795 C-50.73363739 58.96890981 -50.73795036 57.19623658 -50.74984042 55.42362673 C-50.83931726 41.1963476 -49.17483304 29.26381041 -40.24462891 17.63491821 C-39.37837891 16.33554321 -39.37837891 16.33554321 -38.49462891 15.00991821 C-28.14335492 4.08357345 -14.7080551 -0.14148652 0 0 Z " fill="#188DD2" transform="translate(114.24462890625,-0.634918212890625)"/>
</svg>
