<?xml version="1.0" encoding="UTF-8"?>
<svg version="1.1" xmlns="http://www.w3.org/2000/svg" width="512" height="512">
<path d="M0 0 C1.3365287 -0.01469078 1.3365287 -0.01469078 2.70005798 -0.02967834 C22.60828118 -0.20334589 41.90456474 -0.03544421 61.4453125 4.23828125 C62.92451172 4.55974121 62.92451172 4.55974121 64.43359375 4.88769531 C113.29447026 15.88619536 161.14969796 42.34158506 193.4453125 81.23828125 C194.22777344 82.1096875 195.01023437 82.98109375 195.81640625 83.87890625 C224.76774894 116.38002403 243.92344787 159.36421165 250.4453125 202.23828125 C250.62046387 203.358396 250.79561523 204.47851074 250.97607422 205.63256836 C252.5800588 216.94273439 252.84456538 228.13833039 252.8203125 239.55078125 C252.81949677 240.99969254 252.81949677 240.99969254 252.81866455 242.47787476 C252.67723335 297.28359543 233.91294268 351.1405859 198.4453125 393.23828125 C198.00074707 393.77163086 197.55618164 394.30498047 197.09814453 394.85449219 C188.22536736 405.48522354 179.07675597 415.36819695 168.21484375 424.02734375 C166.40012249 425.47604929 164.60476024 426.94942113 162.83203125 428.44921875 C121.52207816 463.33317913 66.69507132 480.72710773 13.1328125 480.61328125 C12.16687164 480.61273743 11.20093079 480.6121936 10.20571899 480.6116333 C-5.69146444 480.57060916 -20.9742443 479.64585488 -36.5546875 476.23828125 C-37.54082031 476.02397461 -38.52695313 475.80966797 -39.54296875 475.58886719 C-80.68601851 466.32763679 -118.66455293 447.01341561 -149.5546875 418.23828125 C-150.94613416 417.02489906 -152.34177389 415.81630322 -153.7421875 414.61328125 C-160.23579506 408.92488103 -165.82997583 402.84849748 -171.23828125 396.11328125 C-172.72964128 394.26228465 -174.24130496 392.42737276 -175.77734375 390.61328125 C-186.48593264 377.92162035 -194.84788293 363.9027082 -202.5546875 349.23828125 C-202.90241211 348.58762695 -203.25013672 347.93697266 -203.60839844 347.26660156 C-214.77726192 326.11658788 -221.86063665 301.78641992 -225.5546875 278.23828125 C-225.73725098 277.08271729 -225.91981445 275.92715332 -226.10791016 274.73657227 C-227.70824137 263.46656388 -227.95385383 252.29750635 -227.9296875 240.92578125 C-227.92914368 239.95984039 -227.92859985 238.99389954 -227.92803955 237.99868774 C-227.88701541 222.10150431 -226.96226113 206.81872445 -223.5546875 191.23828125 C-223.34038086 190.25214844 -223.12607422 189.26601562 -222.90527344 188.25 C-213.64404304 147.10695024 -194.32982186 109.12841582 -165.5546875 78.23828125 C-164.34130531 76.84683459 -163.13270947 75.45119486 -161.9296875 74.05078125 C-123.16385022 29.67058133 -58.73818865 0.53610464 0 0 Z M159.32035828 160.10656738 C152.26072995 168.13256215 151.27077868 177.79660986 150.20703125 188.01953125 C150.0364425 189.52520964 149.86419726 191.03070119 149.69038391 192.53601074 C149.24120883 196.46579336 148.81494089 200.39772702 148.39349365 204.33056641 C147.95849518 208.34831861 147.5004027 212.36343438 147.04492188 216.37890625 C146.38527557 222.22727762 145.7329231 228.0763687 145.1003418 233.92773438 C144.97330368 235.1011438 144.84626556 236.27455322 144.71537781 237.48352051 C144.4127898 240.10869635 144.4127898 240.10869635 144.4453125 242.23828125 C143.87425781 242.22717819 143.30320312 242.21607513 142.71484375 242.20463562 C136.74478881 242.09359432 130.77502953 242.01842946 124.80419922 241.96362305 C122.57914301 241.93855518 120.35416852 241.90449181 118.12939453 241.86108398 C114.92199485 241.80009316 111.71568843 241.77199341 108.5078125 241.75 C107.52103516 241.72419357 106.53425781 241.69838715 105.51757812 241.67179871 C97.5280571 241.6685901 92.81341521 244.04744711 87.0703125 249.48828125 C83.81081815 255.00434861 82.83839671 260.08187045 84.3203125 266.36328125 C86.2422456 271.81442779 89.50130118 275.29713583 94.4453125 278.23828125 C96.9378015 279.01601278 98.80548633 279.18328487 101.4453125 279.23828125 C101.19334106 280.28266357 101.19334106 280.28266357 100.9362793 281.34814453 C98.6617776 290.97156351 96.70336368 300.6486856 94.80102539 310.3515625 C94.25448675 313.13018953 93.69856303 315.90684351 93.14257812 318.68359375 C92.7910885 320.46993842 92.44015698 322.25639301 92.08984375 324.04296875 C91.92426468 324.862883 91.75868561 325.68279724 91.58808899 326.52755737 C89.70780998 335.20550344 89.70780998 335.20550344 92.4453125 343.23828125 C94.251778 344.25290515 94.251778 344.25290515 96.4453125 344.23828125 C99.10665723 343.42813171 99.10665723 343.42813171 101.4453125 341.23828125 C102.7155314 338.21635989 103.23388915 335.07813282 103.8203125 331.86328125 C104.01455811 330.89044189 104.20880371 329.91760254 104.40893555 328.9152832 C104.97602955 326.04225441 105.52139832 323.16588837 106.05938721 320.28729248 C106.63765337 317.21707685 107.23345299 314.15029643 107.82733154 311.08306885 C109.26858628 303.63217935 110.69280157 296.17805925 112.08984375 288.71875 C112.22708359 287.9926503 112.36432343 287.2665506 112.50572205 286.51844788 C113.20293934 282.90276185 113.20293934 282.90276185 113.4453125 279.23828125 C125.3253125 279.23828125 137.2053125 279.23828125 149.4453125 279.23828125 C149.7753125 282.53828125 150.1053125 285.83828125 150.4453125 289.23828125 C150.73335577 291.16071272 151.04580183 293.07988136 151.39746094 294.99169922 C151.67345123 296.50278763 151.67345123 296.50278763 151.95501709 298.04440308 C152.80335512 302.55164678 153.65307716 307.05850984 154.51855469 311.5625 C154.97145433 313.93875267 155.4154032 316.316728 155.85058594 318.69628906 C156.48227861 322.14922571 157.14036981 325.59617928 157.8046875 329.04296875 C157.99448181 330.10651581 158.18427612 331.17006287 158.37982178 332.26583862 C159.51605044 338.20532404 159.51605044 338.20532404 163.11035156 342.93798828 C163.88088867 343.36708496 164.65142578 343.79618164 165.4453125 344.23828125 C169.09847921 342.98851369 170.22597086 342.56729372 172.4453125 339.23828125 C172.07295242 327.76292156 168.72298637 315.87819037 166.50415039 304.63867188 C165.87606626 301.45407555 165.25507415 298.2681503 164.63476562 295.08203125 C164.23739466 293.05590805 163.83962325 291.02986334 163.44140625 289.00390625 C163.25597763 288.05195374 163.07054901 287.10000122 162.87950134 286.11920166 C162.70584549 285.24358582 162.53218964 284.36796997 162.35327148 283.46582031 C162.20164047 282.69530334 162.05000946 281.92478638 161.89378357 281.13092041 C161.50435912 279.1655954 161.50435912 279.1655954 160.4453125 277.23828125 C161.2703125 277.05265625 162.0953125 276.86703125 162.9453125 276.67578125 C170.0106945 273.77392793 175.52137378 268.23740098 179.11206055 261.515625 C180.64716171 257.74210403 181.30746471 254.10046715 181.8515625 250.09375 C181.97231644 249.24707764 182.09307037 248.40040527 182.21748352 247.52807617 C184.06602402 234.20906603 185.56501836 220.84065927 187.08959961 207.48144531 C187.54313853 203.5095221 188.00618556 199.53876857 188.47153759 195.56821442 C188.8339854 192.46293971 189.19017258 189.35696939 189.54467201 186.2507782 C189.7127179 184.78674716 189.88290259 183.3229597 190.0554409 181.85945129 C192.00813139 169.02818634 192.00813139 169.02818634 191.4453125 156.23828125 C182.7071124 147.82523518 166.98462193 152.47050086 159.32035828 160.10656738 Z M-160.2421875 153.11328125 C-161.00917969 153.27570313 -161.77617187 153.438125 -162.56640625 153.60546875 C-164.7579865 154.13534632 -164.7579865 154.13534632 -166.5546875 156.23828125 C-167.84802392 166.54583875 -165.6940641 177.61272677 -164.5078125 187.87109375 C-164.2930046 189.75810646 -164.07838814 191.64514098 -163.86395264 193.53219604 C-163.41483688 197.46784386 -162.96010568 201.40279682 -162.50195312 205.33740234 C-161.91844373 210.35660145 -161.35417455 215.37776041 -160.79472733 220.39969063 C-160.35821461 224.29064315 -159.90887596 228.18003783 -159.45601654 232.0691185 C-159.24261287 233.91919379 -159.03370538 235.76979393 -158.82956696 237.62091446 C-157.07792419 255.00166485 -157.07792419 255.00166485 -148.1796875 269.67578125 C-147.45007813 270.47886719 -146.72046875 271.28195312 -145.96875 272.109375 C-142.97191027 274.7522191 -139.68401673 277.23828125 -135.5546875 277.23828125 C-135.79687012 278.12108765 -135.79687012 278.12108765 -136.04394531 279.02172852 C-138.72348243 289.2331109 -140.68641854 299.58682871 -142.68115234 309.94946289 C-143.30822381 313.19407896 -143.94894165 316.43582569 -144.58984375 319.67773438 C-144.99042393 321.74853549 -145.39019283 323.81949374 -145.7890625 325.890625 C-145.98167664 326.85524155 -146.17429077 327.81985809 -146.3727417 328.81370544 C-146.62861053 330.16650352 -146.62861053 330.16650352 -146.88964844 331.54663086 C-147.04270447 332.33428329 -147.1957605 333.12193573 -147.35345459 333.93345642 C-147.58597056 336.59658241 -147.27333283 338.66829033 -146.5546875 341.23828125 C-144.92018626 343.29773141 -144.92018626 343.29773141 -142.5546875 344.23828125 C-139.41708777 343.41652894 -137.85212875 342.5357225 -135.5546875 340.23828125 C-134.83792348 337.81881394 -134.83792348 337.81881394 -134.31787109 334.94995117 C-133.98775528 333.29264229 -133.98775528 333.29264229 -133.65097046 331.60185242 C-133.42068146 330.40292862 -133.19039246 329.20400482 -132.953125 327.96875 C-132.7117984 326.74045975 -132.4704718 325.51216949 -132.22183228 324.24665833 C-131.71221196 321.64384023 -131.20562032 319.04064909 -130.70410156 316.4362793 C-130.06250931 313.10574276 -129.40999677 309.77746601 -128.75372887 306.44979382 C-128.12765273 303.26959341 -127.5093313 300.08789111 -126.890625 296.90625 C-126.65628754 295.7133989 -126.42195007 294.52054779 -126.18051147 293.29154968 C-125.96673859 292.17722061 -125.7529657 291.06289154 -125.53271484 289.91479492 C-125.34333344 288.93709641 -125.15395203 287.95939789 -124.95883179 286.95207214 C-124.43193917 283.87132427 -124.43193917 283.87132427 -124.5546875 279.23828125 C-112.6746875 279.23828125 -100.7946875 279.23828125 -88.5546875 279.23828125 C-88.0390625 282.29078125 -87.5234375 285.34328125 -86.9921875 288.48828125 C-85.23318218 298.65159333 -83.37692295 308.79737936 -81.45217896 318.93054199 C-81.14637929 320.54781304 -80.84401059 322.16573673 -80.5451355 323.78430176 C-80.11912948 326.08600502 -79.68028235 328.38491561 -79.23828125 330.68359375 C-79.11332275 331.37234589 -78.98836426 332.06109802 -78.85961914 332.77072144 C-78.06873113 336.79489045 -76.97265331 339.91021944 -74.5546875 343.23828125 C-72.66618395 344.31470834 -72.66618395 344.31470834 -70.5546875 344.23828125 C-67.88862731 343.24803032 -66.84078985 342.81048595 -65.5546875 340.23828125 C-65.108993 333.73290891 -66.45414546 327.61339102 -67.70703125 321.25 C-67.92662003 320.11045364 -68.1462088 318.97090729 -68.37245178 317.79682922 C-68.83597085 315.39838145 -69.30262271 313.00053723 -69.7722168 310.60327148 C-70.49284114 306.92244256 -71.20326162 303.23975369 -71.91210938 299.55664062 C-72.36398794 297.22514494 -72.81644177 294.89376066 -73.26953125 292.5625 C-73.48310776 291.45734543 -73.69668427 290.35219086 -73.91673279 289.21354675 C-74.11686478 288.19521255 -74.31699677 287.17687836 -74.52319336 286.12768555 C-74.69862167 285.22946579 -74.87404999 284.33124603 -75.05479431 283.4058075 C-75.47264035 281.20673348 -75.47264035 281.20673348 -76.5546875 279.23828125 C-75.5440625 279.19703125 -74.5334375 279.15578125 -73.4921875 279.11328125 C-68.66061782 278.41745681 -65.76926876 275.76019974 -62.5546875 272.23828125 C-58.80594939 267.03841871 -58.74518417 261.42648447 -59.5546875 255.23828125 C-61.48570618 249.59057069 -65.36462053 246.11171868 -70.41290283 243.14700317 C-72.88493269 242.09816397 -74.64424912 241.99682728 -77.32324219 242.01123047 C-78.73425201 242.01145706 -78.73425201 242.01145706 -80.17376709 242.01168823 C-81.68490082 242.02717209 -81.68490082 242.02717209 -83.2265625 242.04296875 C-84.78289398 242.04721359 -84.78289398 242.04721359 -86.3706665 242.05154419 C-89.68212451 242.0627326 -92.99331134 242.08783498 -96.3046875 242.11328125 C-98.55077734 242.12331277 -100.79687143 242.13243832 -103.04296875 242.140625 C-108.54696741 242.16266755 -114.05080808 242.19613193 -119.5546875 242.23828125 C-119.63794281 241.47121857 -119.72119812 240.70415588 -119.80697632 239.91384888 C-120.59654729 232.64669118 -121.39046051 225.38002667 -122.18912315 218.11386299 C-122.59946606 214.37922073 -123.00819136 210.64441688 -123.41308594 206.90917969 C-123.80468333 203.29718838 -124.20070466 199.68570596 -124.59965897 196.07452011 C-124.75029253 194.70415983 -124.89939369 193.33363012 -125.04685593 191.96292496 C-126.67544807 173.19102005 -126.67544807 173.19102005 -136.7421875 157.92578125 C-143.51935793 152.48328333 -151.92586423 151.27775998 -160.2421875 153.11328125 Z M-66.3671875 204.11328125 C-70.13364903 209.49394058 -71.02563641 213.65568874 -70.08984375 220.06640625 C-68.60314202 226.10002788 -64.32241034 229.68784935 -59.5546875 233.23828125 C-56.27581001 234.33124041 -53.88201177 234.35869507 -50.4309082 234.35180664 C-49.15219849 234.35168579 -47.87348877 234.35156494 -46.55603027 234.35144043 C-45.19750927 234.34640493 -43.83898874 234.34123835 -42.48046875 234.3359375 C-41.24502319 234.33493042 -40.00957764 234.33392334 -38.73669434 234.33288574 C-34.11351597 234.32764645 -29.49035082 234.31368523 -24.8671875 234.30078125 C-9.3675 234.26984375 -9.3675 234.26984375 6.4453125 234.23828125 C6.4453125 266.57828125 6.4453125 298.91828125 6.4453125 332.23828125 C-0.8146875 332.23828125 -8.0746875 332.23828125 -15.5546875 332.23828125 C-18.8099403 334.89586895 -18.8099403 334.89586895 -18.9921875 338.23828125 C-18.85839516 341.27581621 -18.85839516 341.27581621 -16.86058044 342.89953613 C-14.09916291 344.5027477 -12.40320655 344.62957655 -9.22290039 344.65820312 C-8.15822037 344.67411499 -7.09354034 344.69002686 -5.99659729 344.7064209 C-4.85174362 344.70662231 -3.70688995 344.70682373 -2.52734375 344.70703125 C-0.75574135 344.71845154 -0.75574135 344.71845154 1.051651 344.73010254 C3.54897955 344.74090639 6.0463533 344.74375551 8.54370117 344.73925781 C12.36518681 344.73828573 16.18466378 344.77990362 20.00585938 344.82421875 C22.43228748 344.82942583 24.85872256 344.83211394 27.28515625 344.83203125 C28.99940041 344.85662415 28.99940041 344.85662415 30.74827576 344.88171387 C37.33054576 345.00065796 37.33054576 345.00065796 42.70532227 341.70117188 C43.27951904 340.88841797 43.85371582 340.07566406 44.4453125 339.23828125 C43.84347501 337.21782683 43.17225154 335.21717086 42.4453125 333.23828125 C35.28368637 329.65746818 26.45225393 332.23828125 18.4453125 332.23828125 C18.4453125 299.89828125 18.4453125 267.55828125 18.4453125 234.23828125 C49.8828125 234.61328125 49.8828125 234.61328125 59.75952148 234.77880859 C62.36180136 234.796343 64.96409776 234.81162978 67.56640625 234.82421875 C68.23124527 234.83989899 68.89608429 234.85557922 69.58106995 234.87173462 C77.52396776 235.04948196 83.28545473 234.7876584 89.74940491 229.90249634 C93.87142162 225.85751038 95.62015565 221.46301248 95.9453125 215.73828125 C95.64781968 210.17228656 93.88457798 205.47242668 89.7265625 201.6640625 C85.16620951 198.29210658 81.60603521 197.11538547 75.89263916 197.09111023 C74.73747803 197.08395493 73.58231689 197.07679962 72.39215088 197.06942749 C71.1235321 197.06673859 69.85491333 197.06404968 68.54785156 197.0612793 C67.19917628 197.0550132 65.85050273 197.04836627 64.50183105 197.04136658 C60.0715454 197.02034023 55.64125946 197.00996518 51.2109375 197 C49.68466931 196.99595184 48.1584013 196.9918349 46.63213348 196.98764992 C39.4608386 196.96860097 32.289554 196.95436961 25.11823869 196.94603795 C16.84576388 196.93626778 8.5735568 196.90995299 0.30117631 196.86953706 C-6.09639516 196.83935562 -12.49388996 196.82456714 -18.89153123 196.82125694 C-22.71088687 196.81890864 -26.52995639 196.80997742 -30.34923553 196.78479576 C-33.94443444 196.76147437 -37.53915966 196.75729778 -41.13441467 196.76755714 C-43.07612164 196.76828668 -45.01780477 196.74922378 -46.95941162 196.72949219 C-55.314178 196.77922809 -60.56984627 197.75225496 -66.3671875 204.11328125 Z " fill="#2A8CFF" transform="translate(243.5546875,15.76171875)"/>
</svg>
